<svg width="499" height="204" viewBox="0 0 499 204" fill="none" xmlns="http://www.w3.org/2000/svg">
<g filter="url(#filter0_d_43_665)">
<path d="M158.783 70.3955V86.3536C158.783 106.003 158.291 124.928 157.295 143.095C156.586 150.931 155.449 157.35 153.89 162.372C152.191 167.548 149.067 171.173 144.526 173.235L145.593 172.796C142.897 174.565 140.125 175.67 137.289 176.115H137.078C134.236 176.707 131.828 177 129.841 177C126.296 177 122.821 176.335 119.41 175.004C116.006 173.681 113.029 171.685 110.474 169.031C107.491 166.663 104.796 163.051 102.388 158.168C100.401 153.585 98.4145 144.578 96.428 131.121L96.6388 119.154C96.6388 115.609 96.4982 107.487 96.2172 94.7816L96 67.0761C96 46.9805 96.6388 30.0579 97.9163 16.3149C98.2037 15.1375 99.4109 14.0333 101.538 12.9956C103.946 12.1109 106.22 11.4457 108.347 11C109.197 11.4457 110.116 11.6652 111.113 11.6652C113.099 12.2639 114.447 13.2816 115.156 14.765C115.584 15.6497 115.935 17.2861 116.223 19.6343C116.363 21.4236 116.574 22.6676 116.862 23.4126V30.0579C117.564 36.4105 117.922 43.2022 117.922 50.4595L117.711 67.7413C117.711 94.1896 116.932 114.944 115.367 130.017L115.156 136.895V155.507C115.156 159.359 116.223 162.971 118.35 166.377C120.336 169.763 122.674 171.466 125.37 171.466C127.925 171.466 130.339 169.696 132.607 166.151C133.463 164.96 134.236 163.19 134.951 160.822C135.52 159.206 136.018 157.124 136.439 154.623L137.717 146.414C137.857 143.913 137.928 138.073 137.928 128.913L137.717 97.6619L137.289 65.7524C137.289 46.0958 137.928 29.6122 139.205 16.3149C139.205 15.2905 140.412 14.1663 142.827 12.9956C145.094 12.1109 147.368 11.4457 149.636 11C150.485 11.4457 151.476 11.6652 152.612 11.6652C154.599 12.3969 156.023 13.7273 156.873 15.6497C157.863 17.5721 158.361 19.5677 158.361 21.6432L158.15 23.4126L158.572 37.8208C158.572 39.4372 158.713 40.4749 159 40.9206C158.572 46.2355 158.361 51.4773 158.361 56.6525L158.572 63.5173C158.572 65.5927 158.61 67.1826 158.681 68.2868C158.751 69.391 158.783 70.1094 158.783 70.3955Z" fill="#017143"/>
</g>
<g filter="url(#filter1_d_43_665)">
<path d="M233 12.446C233 13.1791 232.713 13.9256 232.132 14.6587C230.395 16.4382 228.07 17.5446 225.171 17.9912C222.702 18.5843 219.15 18.8776 214.507 18.8776H209.721L205.372 19.0975C203.922 19.4041 203.119 20.3572 202.975 21.9967C202.394 26.8754 202.028 35.3931 201.891 47.5231L200.363 72.3963C199.932 76.3886 199.71 79.3611 199.71 81.2872V81.9537C199.71 82.5535 199.854 82.9068 200.148 83.0601C200.442 83.2134 201.016 83.2867 201.891 83.2867L206.893 82.8401C209.505 82.2403 212.692 81.9537 216.466 81.9537C222.702 81.9537 226.836 83.6599 228.867 87.0523C228.285 87.3589 227.593 87.7188 226.803 88.1653C226.006 88.6052 225.242 88.9118 224.518 89.0518C223.355 89.3583 221.612 89.6516 219.294 89.9382L215.376 90.3847L207.984 91.0446C207.252 91.0446 204.791 91.3578 200.585 91.9376C200.291 91.9376 200.004 92.0909 199.71 92.3775C199.423 92.9774 199.279 93.4172 199.279 93.7238C198.842 102.755 198.626 109.779 198.626 114.818C198.626 118.517 198.842 124.742 199.279 133.466V148.122C198.842 150.935 198.626 152.934 198.626 154.127C198.626 161.972 198.698 167.077 198.842 169.45L199.71 170.336C200.004 170.49 200.363 170.556 200.801 170.556H210.374C214.292 170.709 218.928 171.376 224.296 172.556C228.357 173.442 230.395 174.768 230.395 176.548C230.395 177.741 229.957 178.627 229.089 179.227C228.07 180.4 226.111 181 223.212 181C222.049 181 220.162 180.847 217.55 180.553C215.813 180.553 214.213 180.4 212.77 180.114L203.191 179.887L193.618 180.114C189.994 180.4 186.076 179.734 181.87 178.114C178.39 176.475 176.431 173.969 176 170.556C176.575 169.07 176.868 168.25 176.868 168.117C177.737 157.9 178.174 144.35 178.174 127.475L177.959 97.0562L177.521 65.7448C177.521 45.0171 178.246 28.5149 179.696 16.2116C179.696 15.4785 180.205 14.7787 181.217 14.0989C182.23 13.4524 183.614 12.8859 185.357 12.446C188.975 11.113 191.737 10.5132 193.618 10.6665C197.536 11.2663 201.813 11.5529 206.456 11.5529C206.893 11.5529 208.271 11.3996 210.589 11.113L214.729 10.4465H220.815L226.039 10C228.651 10 230.682 10.2933 232.132 10.8931C232.713 11.333 233 11.8462 233 12.446Z" fill="#017143"/>
</g>
<g filter="url(#filter2_d_43_665)">
<path d="M326 7.7383L325.79 9.29378L325.574 10.402L324.728 25.5295L324.944 30.196C324.944 31.0839 324.97 31.7515 325.046 32.1921C325.116 32.6394 325.154 32.9465 325.154 33.08L324.728 48.8751C324.442 56.7327 324.162 61.9999 323.882 64.6636L323.456 73.5693V74.0166C322.61 75.3451 322.183 77.2076 322.183 79.5842V85.1386C322.183 86.6273 322.393 88.0293 322.819 89.3578C322.679 94.4047 322.61 100.113 322.61 106.488L322.819 120.28V139.861L322.61 145.195V149.414L322.393 151.877L322.819 160.096V160.322C321.687 162.405 321.051 164.028 320.911 165.209C319.779 166.251 319.009 167.292 318.583 168.334L317.311 169.889L316.465 170.109C315.752 170.85 314.976 171.224 314.13 171.224C312.292 171.224 310.67 171.071 309.258 170.777C307.845 169.889 306.637 168.848 305.651 167.666C304.239 165.43 303.463 164.181 303.323 163.874V162.986C299.646 155.429 296.255 147.124 293.145 138.085C290.46 130.067 287 119.252 282.763 105.594C282.617 105.013 282.236 103.684 281.599 101.595C280.963 99.5318 279.933 96.3341 278.527 92.0281C278.101 90.4059 276.402 85.9597 273.438 78.6763L269.412 67.3473L269.195 73.5693V74.0166C268.349 75.3451 267.923 77.2076 267.923 79.5842V85.1386C267.923 86.6273 268.139 88.0293 268.559 89.3578L268.349 106.488L268.559 120.28L268.775 133.846L268.559 139.861C268.419 140.595 268.349 142.378 268.349 145.195C268.349 153.059 268.419 158.033 268.559 160.096C268.559 160.249 268.629 160.322 268.775 160.322C268.489 160.476 268.063 161.21 267.503 162.539C267.503 165.67 267.147 168.18 266.441 170.109C265.875 171.892 264.113 172.78 261.142 172.78L259.024 173C257.752 173 256.199 172.64 254.361 171.892C253.089 171.004 252.313 169.822 252.027 168.334C250.335 166.691 249.272 165.209 248.852 163.874V161.878L248 160.543C248 158.627 248.07 157.365 248.216 156.764V156.097C249.062 144.527 249.489 131.336 249.489 116.502L249.272 85.1386C248.992 75.6521 248.852 64.9707 248.852 53.1143C248.852 32.7929 249.489 16.8442 250.761 5.27489C250.761 3.8062 252.453 2.54445 255.843 1.50301C259.24 0.167836 261.638 -0.279449 263.05 0.167836L268.985 0.608445C268.985 0.915535 269.125 1.20928 269.412 1.50301C269.412 1.8101 269.551 2.03041 269.831 2.16393L270.048 2.83152C270.328 3.13861 270.467 3.36559 270.467 3.49911L271.104 5.72218C272.656 9.14024 274.074 14.027 275.346 20.4025C275.906 23.0862 276.511 26.0436 277.147 29.3081C277.783 32.5726 278.451 36.0574 279.157 39.7626L281.491 52.8874C282.617 59.8637 284.036 67.6411 285.728 76.233C287.14 83.2093 288.342 88.3363 289.335 91.5808C290.46 94.5583 291.237 96.7813 291.663 98.2634C294.207 105.373 296.185 110.64 297.598 114.059C299.296 119.252 301.058 124.206 302.896 128.959C302.756 127.918 302.687 124.96 302.687 120.054V111.388C302.687 107.389 302.617 103.818 302.477 100.707C302.33 97.8895 302.26 94.4848 302.26 90.4726V52.2264L301.84 43.5411C301.84 34.5019 302.477 28.7941 303.749 26.4174C303.882 22.5521 304.309 15.5157 305.015 5.27489C305.295 3.8062 306.993 2.54445 310.104 1.50301C313.494 0.167836 315.899 -0.279449 317.311 0.167836L323.246 0.608445L323.665 1.50301C323.952 1.8101 324.092 2.03041 324.092 2.16393L324.728 3.49911L325.574 5.72218L325.79 7.07071V8.17891" fill="#017143"/>
</g>
<g filter="url(#filter3_d_43_665)">
<path d="M412 20.8912C412 22.0705 411.216 22.6635 409.648 22.6635H409.006C408.151 22.5103 406.719 21.1844 404.721 18.6592C401.579 15.108 399.298 13.0425 397.872 12.4495C397.017 12.0031 396.162 11.7833 395.302 11.7833C394.447 11.7833 393.021 12.0698 391.022 12.6694C389.166 13.4223 388.093 13.7754 387.81 13.7754C382.529 15.8609 378.674 18.2994 376.251 21.0978C373.682 24.0627 371.966 27.0343 371.112 29.9792C369.968 36.3421 369.184 40.9327 368.76 43.7444L367.905 49.0679C366.755 56.1837 366.049 60.7677 365.76 62.8332C364.475 72.3142 363.761 79.8565 363.62 85.4865C363.19 93.1753 362.978 102.576 362.978 113.677C362.978 134.691 364.475 149.875 367.475 159.183C368.471 161.708 370.045 163.707 372.184 165.193C374.465 166.659 376.894 167.405 379.464 167.405C383.313 167.405 386.743 166.079 389.737 163.414C391.453 161.335 393.303 159.343 395.302 157.411C398.732 153.713 401.797 151.867 404.508 151.867C406.789 151.867 407.933 153.2 407.933 155.858C407.933 157.191 407.509 158.297 406.648 159.183C404.791 161.115 402.793 162.888 400.66 164.527C397.801 167.325 393.303 170.583 387.168 174.281C381.886 177.386 377.607 178.958 374.324 178.958C370.328 179.245 366.755 178.065 363.62 175.387C360.337 173.175 357.054 170.003 353.777 165.852C352.344 164.08 351.342 162.514 350.777 161.182C349.916 158.963 349.279 157.038 348.849 155.419C344.281 140.321 342 121.818 342 99.9113C342 79.3434 343.927 60.7677 347.776 44.1908L352.061 28.4334C353.346 24.729 355.056 21.1844 357.201 17.7731C359.765 13.4889 364.263 10.2975 370.687 8.23202C375.821 6.75289 381.173 6 386.743 6C389.596 6 392.449 6.23986 395.302 6.68626C396.728 6.81952 399.51 8.45855 403.654 11.5634C407.792 14.5283 410.426 17.0335 411.576 19.0989" fill="#017143"/>
</g>
<g filter="url(#filter4_d_43_665)">
<path d="M80 20.8912C80 22.0705 79.2098 22.6635 77.6423 22.6635H76.9998C76.1454 22.5103 74.7192 21.1844 72.7212 18.6592C69.5797 15.108 67.2926 13.0425 65.8664 12.4495C65.0119 12.0031 64.1575 11.7833 63.303 11.7833C62.4486 11.7833 61.016 12.0698 59.018 12.6694C57.1613 13.4223 56.0949 13.7754 55.8122 13.7754C50.5314 15.8609 46.6703 18.2994 44.2483 21.0978C41.685 24.0627 39.9697 27.0343 39.1153 29.9792C37.9653 36.3421 37.188 40.9327 36.7575 43.7444L35.9031 49.0679C34.7595 56.1837 34.0464 60.7677 33.7638 62.8332C32.4789 72.3142 31.7594 79.8565 31.6244 85.4865C31.194 93.1753 30.9756 102.576 30.9756 113.677C30.9756 134.691 32.4789 149.875 35.4727 159.183C36.4684 161.708 38.0424 163.707 40.1817 165.193C42.4624 166.659 44.8908 167.405 47.4605 167.405C51.3152 167.405 54.7394 166.079 57.7331 163.414C59.4484 161.335 61.2986 159.343 63.303 157.411C66.7272 153.713 69.7917 151.867 72.5028 151.867C74.7898 151.867 75.9334 153.2 75.9334 155.858C75.9334 157.191 75.5029 158.297 74.6485 159.183C72.7918 161.115 70.7939 162.888 68.6546 164.527C65.7957 167.325 61.2986 170.583 55.1698 174.281C49.8825 177.386 45.6039 178.958 42.321 178.958C38.3251 179.245 34.7595 178.065 31.6244 175.387C28.3352 173.175 25.0523 170.003 21.7759 165.852C20.3432 164.08 19.3475 162.514 18.7757 161.182C17.9213 158.963 17.2788 157.038 16.8484 155.419C12.2807 140.321 10 121.818 10 99.9113C10 79.3434 11.9273 60.7677 15.7819 44.1908L20.0606 28.4334C21.3454 24.729 23.0608 21.1844 25.2001 17.7731C27.7634 13.4889 32.2605 10.2975 38.6848 8.23202C43.8243 6.75289 49.1758 6 54.7394 6C57.5918 6 60.4442 6.23986 63.303 6.68626C64.7228 6.81952 67.511 8.45855 71.6483 11.5634C75.7856 14.5283 78.426 17.0335 79.5696 19.0989" fill="#017143"/>
</g>
<g filter="url(#filter5_d_43_665)">
<path d="M475.231 88.7994C475.231 83.2997 475.192 79.1381 475.121 76.3147C475.05 73.5046 475.011 71.5041 475.011 70.2998C474.869 68.8145 474.798 65.5428 474.798 60.4914C474.798 56.1893 474.727 52.9176 474.578 50.6897C474.436 47.418 474.01 44.4406 473.293 41.7644C471.427 33.4413 468.056 25.6467 463.18 18.354C461.455 15.8383 459.737 14.5671 458.013 14.5671C455.572 14.5671 453.208 16.882 450.915 21.4852C448.758 26.095 447.253 30.4773 446.394 34.6389C444.237 48.3078 443.088 70.4537 442.952 101.063L442.732 111.989V120.901C442.732 137.995 443.733 153.237 445.748 166.611C445.748 167.501 445.819 168.277 445.962 168.939C446.104 169.608 446.252 170.177 446.394 170.619C446.827 171.803 447.389 172.78 448.112 173.516C448.971 174.406 449.979 174.854 451.128 174.854C454.138 174.854 457.289 172.265 460.596 167.059C463.748 162.142 466.047 157.619 467.481 153.457C470.781 144.686 473.145 132.65 474.578 117.335C475.011 111.099 475.231 101.598 475.231 88.7994ZM489 97.7246C489 111.253 488.283 123.504 486.849 134.496C485.267 146.245 482.903 155.98 479.745 163.701C477.162 169.662 473.074 174.493 467.481 178.206C462.03 182.06 456.288 184 450.263 184C444.237 184 439.077 181.993 434.776 177.985V178.206H432.832C427.523 171.067 423.583 162.008 421 151.009L421.433 128.488L421 91.0273C421.433 89.6892 421.788 87.9095 422.079 85.6815C422.079 75.7326 422.15 69.2561 422.292 66.2922L422.079 64.7332C422.214 64.5794 422.292 64.2047 422.292 63.6226C424.3 25.8742 434.485 7 452.846 7C459.589 7 465.543 9.00049 470.71 13.0082C475.011 16.4338 478.24 21.1105 480.397 27.0517C483.116 34.7794 485.196 44.5945 486.63 56.477C487.205 62.425 487.566 66.1383 487.708 67.6303C488.567 76.0939 489 86.1298 489 97.7246Z" fill="#017143"/>
</g>
<defs>
<filter id="filter0_d_43_665" x="86" y="11" width="83" height="186" filterUnits="userSpaceOnUse" color-interpolation-filters="sRGB">
<feFlood flood-opacity="0" result="BackgroundImageFix"/>
<feColorMatrix in="SourceAlpha" type="matrix" values="0 0 0 0 0 0 0 0 0 0 0 0 0 0 0 0 0 0 127 0" result="hardAlpha"/>
<feOffset dy="10"/>
<feGaussianBlur stdDeviation="5"/>
<feComposite in2="hardAlpha" operator="out"/>
<feColorMatrix type="matrix" values="0 0 0 0 0 0 0 0 0 0 0 0 0 0 0 0 0 0 0.25 0"/>
<feBlend mode="normal" in2="BackgroundImageFix" result="effect1_dropShadow_43_665"/>
<feBlend mode="normal" in="SourceGraphic" in2="effect1_dropShadow_43_665" result="shape"/>
</filter>
<filter id="filter1_d_43_665" x="166" y="10" width="77" height="191" filterUnits="userSpaceOnUse" color-interpolation-filters="sRGB">
<feFlood flood-opacity="0" result="BackgroundImageFix"/>
<feColorMatrix in="SourceAlpha" type="matrix" values="0 0 0 0 0 0 0 0 0 0 0 0 0 0 0 0 0 0 127 0" result="hardAlpha"/>
<feOffset dy="10"/>
<feGaussianBlur stdDeviation="5"/>
<feComposite in2="hardAlpha" operator="out"/>
<feColorMatrix type="matrix" values="0 0 0 0 0 0 0 0 0 0 0 0 0 0 0 0 0 0 0.25 0"/>
<feBlend mode="normal" in2="BackgroundImageFix" result="effect1_dropShadow_43_665"/>
<feBlend mode="normal" in="SourceGraphic" in2="effect1_dropShadow_43_665" result="shape"/>
</filter>
<filter id="filter2_d_43_665" x="238" y="0" width="98" height="193" filterUnits="userSpaceOnUse" color-interpolation-filters="sRGB">
<feFlood flood-opacity="0" result="BackgroundImageFix"/>
<feColorMatrix in="SourceAlpha" type="matrix" values="0 0 0 0 0 0 0 0 0 0 0 0 0 0 0 0 0 0 127 0" result="hardAlpha"/>
<feOffset dy="10"/>
<feGaussianBlur stdDeviation="5"/>
<feComposite in2="hardAlpha" operator="out"/>
<feColorMatrix type="matrix" values="0 0 0 0 0 0 0 0 0 0 0 0 0 0 0 0 0 0 0.25 0"/>
<feBlend mode="normal" in2="BackgroundImageFix" result="effect1_dropShadow_43_665"/>
<feBlend mode="normal" in="SourceGraphic" in2="effect1_dropShadow_43_665" result="shape"/>
</filter>
<filter id="filter3_d_43_665" x="332" y="6" width="90" height="193" filterUnits="userSpaceOnUse" color-interpolation-filters="sRGB">
<feFlood flood-opacity="0" result="BackgroundImageFix"/>
<feColorMatrix in="SourceAlpha" type="matrix" values="0 0 0 0 0 0 0 0 0 0 0 0 0 0 0 0 0 0 127 0" result="hardAlpha"/>
<feOffset dy="10"/>
<feGaussianBlur stdDeviation="5"/>
<feComposite in2="hardAlpha" operator="out"/>
<feColorMatrix type="matrix" values="0 0 0 0 0 0 0 0 0 0 0 0 0 0 0 0 0 0 0.25 0"/>
<feBlend mode="normal" in2="BackgroundImageFix" result="effect1_dropShadow_43_665"/>
<feBlend mode="normal" in="SourceGraphic" in2="effect1_dropShadow_43_665" result="shape"/>
</filter>
<filter id="filter4_d_43_665" x="0" y="6" width="90" height="193" filterUnits="userSpaceOnUse" color-interpolation-filters="sRGB">
<feFlood flood-opacity="0" result="BackgroundImageFix"/>
<feColorMatrix in="SourceAlpha" type="matrix" values="0 0 0 0 0 0 0 0 0 0 0 0 0 0 0 0 0 0 127 0" result="hardAlpha"/>
<feOffset dy="10"/>
<feGaussianBlur stdDeviation="5"/>
<feComposite in2="hardAlpha" operator="out"/>
<feColorMatrix type="matrix" values="0 0 0 0 0 0 0 0 0 0 0 0 0 0 0 0 0 0 0.25 0"/>
<feBlend mode="normal" in2="BackgroundImageFix" result="effect1_dropShadow_43_665"/>
<feBlend mode="normal" in="SourceGraphic" in2="effect1_dropShadow_43_665" result="shape"/>
</filter>
<filter id="filter5_d_43_665" x="411" y="7" width="88" height="197" filterUnits="userSpaceOnUse" color-interpolation-filters="sRGB">
<feFlood flood-opacity="0" result="BackgroundImageFix"/>
<feColorMatrix in="SourceAlpha" type="matrix" values="0 0 0 0 0 0 0 0 0 0 0 0 0 0 0 0 0 0 127 0" result="hardAlpha"/>
<feOffset dy="10"/>
<feGaussianBlur stdDeviation="5"/>
<feComposite in2="hardAlpha" operator="out"/>
<feColorMatrix type="matrix" values="0 0 0 0 0 0 0 0 0 0 0 0 0 0 0 0 0 0 0.25 0"/>
<feBlend mode="normal" in2="BackgroundImageFix" result="effect1_dropShadow_43_665"/>
<feBlend mode="normal" in="SourceGraphic" in2="effect1_dropShadow_43_665" result="shape"/>
</filter>
</defs>
</svg>
