<svg width="591" height="591" viewBox="0 0 591 591" fill="none" xmlns="http://www.w3.org/2000/svg">
<path d="M591 295.498C591 458.702 458.701 591 295.5 591C132.299 591 0 458.702 0 295.498C0 132.308 132.299 0 295.5 0C458.701 0 591 132.308 591 295.498Z" fill="#017143"/>
<path d="M591 295.498C591 458.702 458.701 591 295.5 591C132.299 591 0 458.702 0 295.498C0 132.308 132.299 0 295.5 0C458.701 0 591 132.308 591 295.498Z" fill="#017143"/>
<path d="M271.476 465.707C272.188 483.918 273.01 502.138 273.969 520.349C274.435 529.18 273.837 538.975 275.503 547.651C276.038 550.428 276.371 553.227 279.705 553.83C291.427 555.944 286.312 531.212 285.974 526.362C284.655 507.64 282.791 488.973 280.463 470.346C280.216 468.36 277.083 468.442 277.335 470.442C278.969 483.52 280.385 496.635 281.531 509.773C282.107 516.339 282.609 522.91 283.052 529.491C283.276 532.783 284.203 536.865 283.714 540.117C283.769 541.13 283.828 542.139 283.883 543.153C279.741 549.026 277.933 549.482 278.453 544.528C277.111 538.884 277.736 532.102 277.426 526.321C277.038 519.243 276.672 512.161 276.33 505.078C275.686 491.927 275.115 478.776 274.608 465.611C274.526 463.592 271.398 463.697 271.476 465.707Z" fill="white"/>
<path d="M272.659 464.177C266.672 463.565 267.101 448.898 266.549 444.514C266.234 441.989 265.75 439.413 265.59 436.879C265.202 430.623 266.54 436.984 267.165 440.221C267.9 444.034 266.622 455.186 270.69 457.336C274.348 459.263 276.056 455.058 276.184 452.3C276.399 447.692 275.252 442.5 274.796 437.92C274.668 436.678 274.426 430.778 276.408 434.144C277.138 435.381 276.782 440.806 276.864 442.267C277.029 445.226 275.622 455.268 279.403 456.999C282.184 458.273 283.773 455.688 284.449 453.514C285.623 449.724 284.563 444.126 284.445 440.176C284.413 439.016 283.056 432.308 284.924 435.404C286.171 437.477 285.664 440.048 285.673 442.445C285.696 446.989 286.18 451.784 285.691 456.309C285.929 458.423 285.349 460.318 283.947 461.999C283.755 464.305 282.668 465.533 280.691 465.693C280.23 466.172 279.348 466.757 278.896 467.204C277.458 468.606 279.764 470.721 281.202 469.319C284.12 466.465 286.276 468.136 288.025 463.999C290.052 459.195 288.851 451.843 288.824 446.802C288.806 443.085 290.87 425.924 282.029 429.924C281.399 430.203 280.869 430.719 280.91 431.468C281.011 433.198 282.883 451.432 281.422 452.007C280.536 452.354 279.787 435.746 279.536 434.048C279.015 430.518 275.759 424.499 271.951 429.28C269.978 431.746 271.554 436.915 271.814 439.495C272.079 442.126 272.96 445.834 272.713 448.45C273.892 451.318 273.522 452.122 271.599 450.884C271.353 448.838 271.106 446.779 270.855 444.733C270.179 439.171 271.147 427.76 262.813 429.326C262.192 429.445 261.617 430.239 261.695 430.869C262.85 440.057 263.635 449.4 265.174 458.528C265.919 462.912 267.088 466.734 271.955 467.227C273.933 467.424 274.659 464.373 272.659 464.177Z" fill="white"/>
<path d="M314.113 468.081C305.852 465.729 303.469 457.816 302.523 450.226C301.61 442.888 302.363 425.983 315.62 431.664C328.63 437.24 321.986 459.743 314.264 466.734C312.77 468.09 315.081 470.195 316.565 468.853C323.762 462.341 327.292 450.3 325.451 440.769C324.054 433.513 317.78 426.276 309.674 427.595C299.624 429.235 298.477 440.984 299.245 449.025C300.158 458.61 303.295 468.255 313.41 471.132C315.35 471.68 316.045 468.629 314.113 468.081Z" fill="white"/>
<path d="M308.752 470.392C308.231 497.68 307.793 524.965 307.428 552.249C307.423 552.756 307.775 553.405 308.268 553.592C319.885 558.044 316.885 533.262 317.054 527.992C317.711 507.891 317.958 487.78 317.844 467.67C317.83 465.647 314.706 465.752 314.716 467.761C314.789 480.835 314.716 493.904 314.469 506.973C314.337 514.015 314.159 521.047 313.93 528.084C313.757 533.362 315.373 543.888 311.916 547.646C310.355 550.048 309.93 549.532 310.638 546.094C310.665 544.075 310.697 542.052 310.72 540.034C310.766 537.002 310.807 533.97 310.852 530.938C310.948 524.367 311.053 517.8 311.158 511.234C311.378 497.589 311.62 483.945 311.88 470.314C311.916 468.291 308.788 468.396 308.752 470.392Z" fill="white"/>
<path d="M135.204 433.477C121.413 434.458 105.682 419.065 102.508 406.425C99.0602 392.689 101.257 376.314 103.773 362.633C104.115 360.775 101.238 360.099 100.896 361.98C98.0099 377.62 94.7083 398.315 101.8 413.252C107.225 424.673 122.075 437.367 135.295 436.436C137.19 436.294 137.103 433.335 135.204 433.477Z" fill="white"/>
<path d="M138.231 435.194C148.163 405.151 118.938 380.639 104.727 357.423C103.732 355.798 101.225 357.364 102.22 358.989C115.915 381.351 144.88 405.699 135.35 434.527C134.756 436.34 137.638 436.984 138.231 435.194Z" fill="white"/>
<path d="M136.272 433.198C122.724 412.106 112.814 389.146 106.746 364.834C106.28 362.985 103.453 363.83 103.91 365.674C110.047 390.246 120.08 413.453 133.761 434.764C134.793 436.363 137.3 434.796 136.272 433.198Z" fill="white"/>
<path d="M114.541 400.544C110.394 397.297 106.252 394.036 102.106 390.785C100.622 389.616 98.6082 391.776 100.106 392.959C104.252 396.21 108.394 399.47 112.54 402.722C114.025 403.891 116.043 401.726 114.541 400.544Z" fill="white"/>
<path d="M110.91 387.908C107.974 385.675 105.038 383.433 102.097 381.187C100.599 380.054 98.5807 382.214 100.097 383.36C103.038 385.607 105.974 387.849 108.91 390.082C110.408 391.228 112.426 389.068 110.91 387.908Z" fill="white"/>
<path d="M125.153 417.658C116.947 416.129 109.385 412.996 102.576 408.142C101.051 407.055 99.0281 409.206 100.576 410.32C107.809 415.476 115.755 418.91 124.491 420.535C126.354 420.887 127.03 418.01 125.153 417.658Z" fill="white"/>
<path d="M122.486 407.243C122.701 401.42 123.276 395.657 124.208 389.918C124.514 388.05 121.637 387.369 121.331 389.255C120.354 395.251 119.755 401.26 119.532 407.325C119.463 409.233 122.418 409.138 122.486 407.243Z" fill="white"/>
<path d="M129.875 419.065C130.199 413.403 130.523 407.736 130.847 402.078C130.957 400.183 128.002 400.288 127.897 402.169C127.569 407.827 127.244 413.485 126.92 419.143C126.811 421.051 129.765 420.946 129.875 419.065Z" fill="white"/>
<path d="M117.477 393.941C117.07 390.397 117.49 386.95 118.879 383.653C119.609 381.922 117.002 380.534 116.262 382.287C114.682 386.041 114.056 389.977 114.522 394.037C114.737 395.904 117.691 395.836 117.477 393.941Z" fill="white"/>
<path d="M453.7 429.677C467.491 430.659 483.223 415.266 486.396 402.64C489.844 388.89 487.647 372.515 485.131 358.848C484.789 356.975 487.666 356.299 488.008 358.181C490.894 373.821 494.196 394.516 487.104 409.453C481.679 420.873 466.829 433.568 453.609 432.636C451.714 432.495 451.801 429.536 453.7 429.677Z" fill="white"/>
<path d="M450.673 431.395C440.741 401.352 469.966 376.84 484.177 353.624C485.173 351.998 487.675 353.564 486.684 355.19C472.989 377.552 444.024 401.9 453.554 430.728C454.148 432.541 451.267 433.185 450.673 431.395Z" fill="white"/>
<path d="M452.632 429.399C466.18 408.307 476.085 385.347 482.158 361.035C482.624 359.186 485.455 360.03 484.994 361.875C478.857 386.447 468.824 409.654 455.139 430.965C454.111 432.563 451.604 430.997 452.632 429.399Z" fill="white"/>
<path d="M474.363 396.744C478.51 393.498 482.652 390.237 486.798 386.986C488.282 385.817 490.296 387.977 488.798 389.159C484.652 392.411 480.51 395.671 476.364 398.922C474.88 400.091 472.861 397.927 474.363 396.744Z" fill="white"/>
<path d="M477.994 384.109C480.93 381.876 483.866 379.634 486.802 377.387C488.305 376.255 490.323 378.415 488.807 379.574C485.866 381.807 482.93 384.05 479.994 386.283C478.496 387.429 476.478 385.269 477.994 384.109Z" fill="white"/>
<path d="M463.751 413.859C471.957 412.343 479.519 409.197 486.328 404.343C487.853 403.256 489.876 405.421 488.328 406.521C481.094 411.677 473.149 415.11 464.413 416.736C462.545 417.088 461.874 414.211 463.751 413.859Z" fill="white"/>
<path d="M466.413 403.443C466.199 397.635 465.628 391.858 464.696 386.118C464.39 384.251 467.267 383.57 467.573 385.456C468.546 391.452 469.144 397.461 469.368 403.525C469.441 405.434 466.486 405.338 466.413 403.443Z" fill="white"/>
<path d="M459.03 415.266C458.705 409.603 458.381 403.946 458.052 398.279C457.947 396.384 460.902 396.489 461.007 398.37C461.336 404.028 461.66 409.686 461.984 415.343C462.094 417.252 459.139 417.147 459.03 415.266Z" fill="white"/>
<path d="M471.427 390.141C471.834 386.598 471.409 383.164 470.026 379.867C469.295 378.123 471.902 376.734 472.642 378.488C474.222 382.242 474.848 386.178 474.382 390.237C474.167 392.105 471.213 392.037 471.427 390.141Z" fill="white"/>
<path d="M65.8299 260.373C75.9218 264.834 85.8127 269.666 95.5256 274.89C97.2015 275.789 98.6399 273.205 96.964 272.305C87.2466 267.081 77.3557 262.254 67.2684 257.798C65.5377 257.026 64.0901 259.61 65.8299 260.373Z" fill="white"/>
<path d="M78.438 294.096C82.9177 294.164 87.3244 293.534 91.6123 292.251C93.4297 291.699 92.626 288.849 90.7994 289.411C86.7444 290.625 82.6483 291.196 78.4106 291.137C76.5064 291.114 76.5384 294.073 78.438 294.096Z" fill="white"/>
<path d="M75.584 317.522C82.1232 314.065 89.0459 311.677 96.3112 310.32C98.1788 309.973 97.3569 307.142 95.4983 307.48C87.9682 308.887 80.8126 311.421 74.0451 314.996C72.3647 315.887 73.9035 318.412 75.584 317.522Z" fill="white"/>
<path d="M534.901 260.373C524.814 264.834 514.923 269.666 505.206 274.89C503.53 275.789 502.091 273.205 503.772 272.305C513.484 267.081 523.375 262.254 533.467 257.798C535.193 257.026 536.646 259.61 534.901 260.373Z" fill="white"/>
<path d="M522.293 294.096C517.818 294.164 513.407 293.534 509.123 292.251C507.306 291.699 508.11 288.849 509.936 289.411C513.991 290.625 518.087 291.196 522.32 291.137C524.229 291.114 524.193 294.073 522.293 294.096Z" fill="white"/>
<path d="M525.152 317.522C518.613 314.065 511.69 311.677 504.425 310.32C502.552 309.973 503.379 307.142 505.233 307.48C512.763 308.887 519.919 311.421 526.691 314.996C528.371 315.887 526.832 318.412 525.152 317.522Z" fill="white"/>
<path d="M168.872 99.4794C181.234 111.252 193.595 123.015 205.956 134.782C207.331 136.093 209.336 133.919 207.957 132.609C195.595 120.837 183.234 109.078 170.872 97.3058C169.498 95.9952 167.493 98.1734 168.872 99.4794Z" fill="white"/>
<path d="M186.563 132.75C190.805 137.381 195.303 141.751 200.052 145.856C201.486 147.094 203.495 144.934 202.052 143.682C197.303 139.564 192.805 135.207 188.563 130.577C187.28 129.175 185.28 131.349 186.563 132.75Z" fill="white"/>
<path d="M168.872 483.625C181.234 471.853 193.595 460.085 205.956 448.313C207.331 447.003 209.336 449.176 207.957 450.487C195.595 462.259 183.234 474.031 170.872 485.799C169.498 487.109 167.493 484.936 168.872 483.625Z" fill="white"/>
<path d="M186.563 450.359C190.805 445.729 195.303 441.354 200.052 437.24C201.486 436.002 203.495 438.176 202.052 439.427C197.303 443.532 192.805 447.902 188.563 452.532C187.28 453.934 185.28 451.747 186.563 450.359Z" fill="white"/>
<path d="M422.338 99.4794C409.976 111.252 397.615 123.015 385.254 134.782C383.879 136.093 381.874 133.919 383.254 132.609C395.615 120.837 407.976 109.078 420.338 97.3058C421.712 95.9952 423.717 98.1734 422.338 99.4794Z" fill="white"/>
<path d="M404.648 132.75C400.405 137.381 395.907 141.751 391.158 145.856C389.724 147.094 387.715 144.934 389.158 143.682C393.907 139.564 398.405 135.207 402.647 130.577C403.931 129.175 405.931 131.349 404.648 132.75Z" fill="white"/>
<path d="M415.84 483.625C403.478 471.853 391.117 460.085 378.756 448.313C377.381 447.003 375.376 449.176 376.756 450.487C389.117 462.259 401.478 474.031 413.84 485.799C415.219 487.109 417.223 484.936 415.84 483.625Z" fill="white"/>
<path d="M398.154 450.359C393.907 445.729 389.414 441.354 384.66 437.24C383.226 436.002 381.222 438.176 382.665 439.427C387.414 443.532 391.907 447.902 396.154 452.532C397.437 453.934 399.433 451.747 398.154 450.359Z" fill="white"/>
<path d="M234.382 277.881V288.835C234.382 302.325 234.031 315.316 233.319 327.787C232.812 333.166 231.999 337.573 230.885 341.02C229.67 344.573 227.437 347.062 224.19 348.477L224.953 348.176C223.026 349.391 221.044 350.149 219.016 350.455H218.866C216.834 350.861 215.112 351.062 213.692 351.062C211.157 351.062 208.673 350.605 206.235 349.692C203.801 348.783 201.673 347.413 199.846 345.591C197.714 343.966 195.787 341.486 194.065 338.134C192.645 334.988 191.225 328.805 189.805 319.567L189.955 311.352C189.955 308.918 189.855 303.343 189.654 294.621L189.499 275.602C189.499 261.807 189.955 250.19 190.869 240.756C191.074 239.947 191.937 239.189 193.458 238.477C195.179 237.87 196.805 237.413 198.326 237.107C198.933 237.413 199.591 237.564 200.303 237.564C201.723 237.975 202.687 238.673 203.194 239.692C203.5 240.299 203.751 241.422 203.956 243.034C204.057 244.263 204.207 245.116 204.413 245.628V250.19C204.915 254.551 205.171 259.213 205.171 264.195L205.02 276.059C205.02 294.215 204.463 308.462 203.344 318.809L203.194 323.531V336.308C203.194 338.952 203.956 341.431 205.477 343.769C206.897 346.094 208.568 347.263 210.495 347.263C212.322 347.263 214.048 346.048 215.669 343.614C216.281 342.797 216.834 341.582 217.345 339.956C217.751 338.847 218.108 337.418 218.409 335.701L219.322 330.066C219.423 328.349 219.473 324.339 219.473 318.051L219.322 296.598L219.016 274.693C219.016 261.199 219.473 249.884 220.386 240.756C220.386 240.052 221.249 239.281 222.975 238.477C224.597 237.87 226.222 237.413 227.843 237.107C228.451 237.413 229.158 237.564 229.971 237.564C231.391 238.066 232.41 238.979 233.017 240.299C233.725 241.619 234.081 242.988 234.081 244.413L233.93 245.628L234.232 255.519C234.232 256.628 234.332 257.341 234.538 257.647C234.232 261.295 234.081 264.894 234.081 268.446L234.232 273.159C234.232 274.584 234.259 275.675 234.309 276.433C234.36 277.191 234.382 277.684 234.382 277.881Z" fill="white"/>
<path d="M286.591 237.87C286.591 238.372 286.39 238.883 285.983 239.386C284.769 240.605 283.143 241.363 281.116 241.669C279.39 242.075 276.905 242.276 273.659 242.276H270.311L267.27 242.427C266.256 242.637 265.695 243.29 265.594 244.413C265.188 247.756 264.932 253.592 264.836 261.903L263.768 278.945C263.466 281.68 263.311 283.717 263.311 285.036V285.493C263.311 285.904 263.411 286.146 263.617 286.251C263.822 286.356 264.224 286.406 264.836 286.406L268.334 286.1C270.161 285.689 272.389 285.493 275.029 285.493C279.39 285.493 282.28 286.662 283.7 288.986C283.294 289.196 282.81 289.443 282.257 289.749C281.7 290.05 281.166 290.26 280.659 290.356C279.846 290.566 278.627 290.767 277.006 290.964L274.266 291.269L269.097 291.722C268.585 291.722 266.864 291.936 263.923 292.333C263.717 292.333 263.517 292.438 263.311 292.635C263.11 293.046 263.01 293.347 263.01 293.557C262.704 299.745 262.553 304.558 262.553 308.01C262.553 310.544 262.704 314.809 263.01 320.787V330.828C262.704 332.755 262.553 334.125 262.553 334.943C262.553 340.317 262.603 343.815 262.704 345.441L263.311 346.048C263.517 346.153 263.768 346.199 264.074 346.199H270.768C273.508 346.304 276.75 346.761 280.504 347.569C283.344 348.176 284.769 349.085 284.769 350.304C284.769 351.122 284.463 351.729 283.856 352.14C283.143 352.944 281.773 353.355 279.746 353.355C278.933 353.355 277.613 353.25 275.787 353.049C274.572 353.049 273.453 352.944 272.444 352.747L265.745 352.592L259.051 352.747C256.516 352.944 253.776 352.487 250.835 351.377C248.402 350.254 247.032 348.537 246.73 346.199C247.132 345.181 247.338 344.619 247.338 344.528C247.945 337.527 248.251 328.244 248.251 316.682L248.1 295.84L247.794 274.387C247.794 260.186 248.301 248.879 249.315 240.45C249.315 239.947 249.671 239.468 250.379 239.002C251.087 238.559 252.055 238.171 253.274 237.87C255.804 236.956 257.735 236.545 259.051 236.65C261.79 237.061 264.781 237.258 268.028 237.258C268.334 237.258 269.298 237.153 270.919 236.956L273.814 236.5H278.07L281.723 236.194C283.55 236.194 284.97 236.395 285.983 236.806C286.39 237.107 286.591 237.459 286.591 237.87Z" fill="white"/>
<path d="M353.252 234.828L353.101 235.892L352.946 236.65L352.339 246.998L352.494 250.19C352.494 250.797 352.512 251.254 352.567 251.555C352.617 251.861 352.645 252.071 352.645 252.162L352.339 262.967C352.133 268.341 351.932 271.944 351.731 273.766L351.425 279.858V280.164C350.818 281.072 350.512 282.346 350.512 283.972V287.771C350.512 288.79 350.663 289.749 350.969 290.657C350.868 294.11 350.818 298.014 350.818 302.375L350.969 311.809V325.202L350.818 328.851V331.737L350.663 333.422L350.969 339.043V339.198C350.156 340.623 349.699 341.733 349.599 342.541C348.786 343.253 348.233 343.966 347.927 344.678L347.014 345.742L346.407 345.893C345.895 346.4 345.338 346.655 344.731 346.655C343.411 346.655 342.247 346.55 341.233 346.349C340.219 345.742 339.352 345.03 338.644 344.222C337.63 342.692 337.073 341.838 336.973 341.628V341.02C334.333 335.851 331.899 330.171 329.666 323.988C327.739 318.503 325.255 311.106 322.214 301.763C322.109 301.366 321.835 300.457 321.378 299.028C320.921 297.617 320.182 295.429 319.172 292.484C318.867 291.374 317.647 288.333 315.519 283.351L312.629 275.602L312.473 279.858V280.164C311.866 281.072 311.56 282.346 311.56 283.972V287.771C311.56 288.79 311.715 289.749 312.017 290.657L311.866 302.375L312.017 311.809L312.172 321.088L312.017 325.202C311.916 325.705 311.866 326.924 311.866 328.851C311.866 334.23 311.916 337.632 312.017 339.043C312.017 339.148 312.067 339.198 312.172 339.198C311.967 339.303 311.661 339.806 311.259 340.714C311.259 342.856 311.003 344.573 310.496 345.893C310.09 347.112 308.825 347.719 306.692 347.719L305.172 347.87C304.258 347.87 303.144 347.623 301.825 347.112C300.911 346.505 300.354 345.696 300.149 344.678C298.934 343.555 298.171 342.541 297.87 341.628V340.262L297.258 339.349C297.258 338.039 297.308 337.176 297.413 336.765V336.308C298.021 328.394 298.327 319.371 298.327 309.224L298.171 287.771C297.97 281.283 297.87 273.976 297.87 265.866C297.87 251.966 298.327 241.057 299.24 233.143C299.24 232.139 300.455 231.276 302.888 230.563C305.327 229.65 307.049 229.344 308.062 229.65L312.323 229.951C312.323 230.161 312.423 230.362 312.629 230.563C312.629 230.773 312.729 230.924 312.93 231.015L313.085 231.472C313.286 231.682 313.387 231.837 313.387 231.929L313.843 233.449C314.958 235.787 315.976 239.13 316.889 243.491C317.291 245.326 317.725 247.349 318.182 249.582C318.638 251.815 319.118 254.199 319.625 256.733L321.3 265.711C322.109 270.483 323.127 275.803 324.342 281.68C325.355 286.452 326.219 289.959 326.931 292.178C327.739 294.215 328.296 295.735 328.602 296.749C330.429 301.612 331.849 305.215 332.863 307.553C334.082 311.106 335.347 314.494 336.667 317.745C336.566 317.033 336.516 315.01 336.516 311.654V305.727C336.516 302.991 336.466 300.548 336.365 298.42C336.26 296.493 336.21 294.164 336.21 291.42V265.259L335.909 259.318C335.909 253.135 336.365 249.231 337.278 247.605C337.374 244.961 337.68 240.148 338.187 233.143C338.388 232.139 339.607 231.276 341.84 230.563C344.274 229.65 346 229.344 347.014 229.65L351.275 229.951L351.576 230.563C351.782 230.773 351.882 230.924 351.882 231.015L352.339 231.929L352.946 233.449L353.101 234.372V235.13" fill="white"/>
<path d="M413.977 243.806C413.977 244.614 413.42 245.021 412.305 245.021H411.849C411.241 244.916 410.223 244.007 408.803 242.276C406.57 239.842 404.949 238.427 403.935 238.02C403.328 237.714 402.72 237.564 402.108 237.564C401.501 237.564 400.487 237.76 399.067 238.171C397.747 238.687 396.985 238.929 396.784 238.929C393.03 240.358 390.29 242.03 388.569 243.948C386.742 245.98 385.523 248.016 384.916 250.035C384.103 254.396 383.546 257.542 383.244 259.469L382.637 263.117C381.82 267.994 381.317 271.136 381.112 272.552C380.199 279.05 379.692 284.219 379.591 288.078C379.285 293.347 379.135 299.79 379.135 307.398C379.135 321.801 380.199 332.207 382.331 338.587C383.039 340.317 384.158 341.687 385.678 342.706C387.299 343.71 389.026 344.222 390.852 344.222C393.587 344.222 396.026 343.313 398.154 341.486C399.373 340.062 400.688 338.696 402.108 337.372C404.547 334.838 406.725 333.573 408.652 333.573C410.273 333.573 411.086 334.486 411.086 336.308C411.086 337.221 410.785 337.979 410.173 338.587C408.853 339.911 407.433 341.126 405.917 342.249C403.885 344.167 400.688 346.4 396.327 348.934C392.574 351.062 389.532 352.14 387.199 352.14C384.359 352.336 381.82 351.528 379.591 349.692C377.258 348.176 374.924 346.003 372.595 343.158C371.577 341.943 370.865 340.87 370.463 339.957C369.851 338.436 369.399 337.116 369.093 336.007C365.846 325.659 364.225 312.978 364.225 297.964C364.225 283.867 365.595 271.136 368.33 259.775L371.376 248.975C372.289 246.436 373.504 244.007 375.029 241.669C376.851 238.733 380.048 236.545 384.614 235.13C388.263 234.116 392.067 233.6 396.026 233.6C398.053 233.6 400.081 233.764 402.108 234.07C403.122 234.162 405.099 235.285 408.045 237.413C410.986 239.445 412.858 241.162 413.675 242.578" fill="white"/>
<path d="M178.197 243.806C178.197 244.614 177.635 245.021 176.521 245.021H176.064C175.457 244.916 174.443 244.007 173.023 242.276C170.79 239.842 169.164 238.427 168.151 238.02C167.543 237.714 166.936 237.564 166.329 237.564C165.721 237.564 164.703 237.76 163.283 238.171C161.963 238.687 161.205 238.929 161.004 238.929C157.25 240.358 154.506 242.03 152.784 243.948C150.962 245.98 149.743 248.016 149.136 250.035C148.318 254.396 147.766 257.542 147.46 259.469L146.853 263.117C146.04 267.994 145.533 271.136 145.332 272.552C144.419 279.05 143.907 284.219 143.811 288.078C143.505 293.347 143.35 299.79 143.35 307.398C143.35 321.801 144.419 332.207 146.547 338.587C147.254 340.317 148.373 341.687 149.894 342.706C151.515 343.71 153.241 344.222 155.068 344.222C157.808 344.222 160.241 343.313 162.369 341.486C163.589 340.062 164.904 338.696 166.329 337.372C168.762 334.838 170.941 333.573 172.868 333.573C174.493 333.573 175.306 334.486 175.306 336.308C175.306 337.221 175 337.979 174.393 338.587C173.073 339.911 171.653 341.126 170.132 342.249C168.1 344.167 164.904 346.4 160.547 348.934C156.789 351.062 153.748 352.14 151.415 352.14C148.574 352.336 146.04 351.528 143.811 349.692C141.473 348.176 139.14 346.003 136.811 343.158C135.793 341.943 135.085 340.87 134.678 339.957C134.071 338.436 133.614 337.116 133.309 336.007C130.062 325.659 128.441 312.978 128.441 297.964C128.441 283.867 129.811 271.136 132.55 259.775L135.592 248.975C136.505 246.436 137.724 244.007 139.245 241.669C141.067 238.733 144.263 236.545 148.83 235.13C152.483 234.116 156.287 233.6 160.241 233.6C162.269 233.6 164.296 233.764 166.329 234.07C167.338 234.162 169.32 235.285 172.26 237.413C175.201 239.445 177.078 241.162 177.891 242.578" fill="white"/>
<path d="M459.144 290.507C459.144 286.753 459.116 283.913 459.066 281.986C459.016 280.068 458.988 278.703 458.988 277.881C458.888 276.867 458.838 274.634 458.838 271.186C458.838 268.25 458.787 266.017 458.682 264.496C458.582 262.263 458.281 260.231 457.774 258.405C456.454 252.724 454.07 247.404 450.623 242.427C449.403 240.71 448.189 239.842 446.969 239.842C445.243 239.842 443.572 241.422 441.951 244.564C440.426 247.71 439.362 250.701 438.754 253.542C437.229 262.871 436.416 277.986 436.32 298.877L436.165 306.334V312.417C436.165 324.084 436.873 334.486 438.298 343.614C438.298 344.222 438.348 344.751 438.448 345.203C438.549 345.66 438.654 346.048 438.754 346.35C439.06 347.158 439.458 347.825 439.969 348.327C440.576 348.934 441.289 349.24 442.102 349.24C444.23 349.24 446.458 347.473 448.796 343.92C451.024 340.564 452.65 337.477 453.664 334.637C455.997 328.65 457.669 320.435 458.682 309.983C458.988 305.727 459.144 299.242 459.144 290.507ZM468.879 296.598C468.879 305.832 468.372 314.193 467.359 321.695C466.24 329.714 464.569 336.358 462.336 341.628C460.509 345.697 457.618 348.994 453.664 351.528C449.81 354.158 445.75 355.482 441.49 355.482C437.229 355.482 433.581 354.113 430.539 351.377V351.528H429.165C425.411 346.656 422.626 340.473 420.799 332.965L421.105 317.595L420.799 292.027C421.105 291.114 421.356 289.899 421.562 288.379C421.562 281.589 421.612 277.168 421.712 275.145L421.562 274.081C421.658 273.976 421.712 273.721 421.712 273.323C423.133 247.56 430.334 234.678 443.316 234.678C448.084 234.678 452.294 236.043 455.947 238.778C458.988 241.116 461.272 244.308 462.797 248.363C464.719 253.638 466.19 260.336 467.203 268.446C467.61 272.506 467.866 275.04 467.966 276.059C468.573 281.835 468.879 288.685 468.879 296.598Z" fill="white"/>
<path d="M101.142 191.456C101.097 191.506 101.024 191.552 101.019 191.598C101.019 191.657 101.088 191.717 101.124 191.771C101.161 191.717 101.225 191.666 101.234 191.612C101.238 191.561 101.174 191.506 101.142 191.456ZM105.686 216.955C105.7 216.987 105.704 217.046 105.727 217.06C105.86 217.083 105.997 217.106 106.129 217.12C106.134 217.083 106.152 217.01 106.138 217.01C106.015 216.964 105.882 216.905 105.75 216.873C105.736 216.873 105.704 216.932 105.686 216.955ZM98.7678 202.845C98.8272 202.763 98.8683 202.703 98.914 202.658C98.8272 202.612 98.7359 202.53 98.6537 202.539C98.5898 202.539 98.5441 202.667 98.4893 202.74C98.5852 202.772 98.6811 202.808 98.7678 202.845ZM115.86 219.887C115.833 219.864 115.805 219.827 115.778 219.818C115.636 219.805 115.495 219.795 115.358 219.795C115.344 219.795 115.321 219.887 115.326 219.887C115.449 219.946 115.577 220.006 115.709 220.028C115.751 220.042 115.81 219.946 115.86 219.887ZM94.0096 200.365C94.1603 200.411 94.2562 200.484 94.343 200.461C94.5119 200.434 94.6169 200.201 94.5119 200.132C94.4343 200.087 94.3019 200.073 94.2105 200.096C94.142 200.132 94.1009 200.237 94.0096 200.365ZM118.02 164.674C117.952 164.688 117.856 164.665 117.819 164.697C117.7 164.816 117.609 164.957 117.509 165.085C117.573 165.122 117.673 165.19 117.696 165.167C117.824 165.049 117.938 164.921 118.052 164.779C118.066 164.77 118.034 164.711 118.02 164.674ZM93.2059 197.772C93.0643 197.383 92.973 197.137 92.868 196.858C92.6397 197.548 92.6397 197.548 93.2059 197.772ZM96.0371 184.278C95.6992 184.584 95.5759 184.981 95.4526 185.556C95.7768 185.31 96.0051 185.155 96.2015 184.981C96.4755 184.712 96.3522 184.492 96.0371 184.278ZM100.937 204.69C100.53 204.914 100.252 205.183 100.033 205.662C100.512 205.626 100.859 205.557 101.161 205.288C101.078 205.078 101.019 204.9 100.937 204.69ZM100.311 196.858C99.809 197.246 99.809 197.246 99.5944 197.735C99.8364 197.699 100.065 197.667 100.284 197.63C100.389 197.361 100.558 197.114 100.311 196.858ZM95.6627 205.461C95.2791 205.32 94.9914 205.087 94.6535 205.37C94.7905 205.58 94.9183 205.79 95.0964 206.069C95.3339 205.813 95.4983 205.64 95.6627 205.461ZM122.929 157.404C123.513 157.464 123.513 157.464 124.829 156.669C124.139 156.879 123.568 157.067 122.929 157.404ZM100.53 213.051C100.626 213.188 100.699 213.32 100.8 213.412C101.051 213.645 101.311 213.855 101.626 214.124C101.773 213.905 101.873 213.75 101.969 213.599C101.024 212.909 101.024 212.909 100.53 213.051ZM93.8589 189.821C94.1466 189.799 94.3019 189.831 94.3703 189.776C94.7494 189.433 95.1101 189.073 95.4663 188.712C95.5165 188.652 95.5028 188.534 95.5257 188.397C95.0371 188.488 94.6169 188.57 94.1649 188.652C94.069 189.013 93.9822 189.356 93.8589 189.821ZM111.554 172.812C109.472 173.807 108.691 174.341 107.924 175.35C108.28 175.14 108.508 174.985 108.741 174.857C109.257 174.565 109.746 174.181 110.303 174.003C110.901 173.816 111.23 173.465 111.554 172.812ZM98.1148 188.479C99.6583 187.844 100.403 187.273 100.795 186.511C99.5076 186.643 98.8363 187.589 98.1148 188.479ZM98.2427 180.004C97.8272 180.725 97.4253 181.406 97.0509 182.104C96.9732 182.246 96.7632 182.41 97.0098 182.607C97.6856 181.917 98.3569 181.25 99.0236 180.574C99.0784 180.515 99.1377 180.456 99.1697 180.387C99.1925 180.328 99.1788 180.259 99.1834 180.154C98.9094 180.109 98.64 180.072 98.2427 180.004ZM105.239 182.141C104.202 182.739 103.316 183.401 102.499 184.397C103.188 184.232 103.713 184.104 104.289 183.976C104.595 183.378 104.914 182.762 105.239 182.141ZM98.9322 208.325C97.987 208.302 97.4207 208.407 96.6947 208.722C97.1148 209.448 97.608 210.092 98.2336 210.676C98.2701 210.256 98.2336 209.845 98.3432 209.494C98.471 209.087 98.7222 208.722 98.9322 208.325ZM99.8729 177.743C100.229 177.533 100.467 177.419 100.677 177.264C102.727 175.83 104.905 174.602 107.088 173.373C108.134 172.789 109.074 172.063 109.942 171.245C110.056 171.14 110.111 170.976 110.225 170.78C109.49 170.871 109.052 171.305 108.558 171.633C107.07 172.615 105.613 173.643 104.092 174.579C103.225 175.113 102.371 175.725 101.325 175.921C101.184 175.958 101.015 176.04 100.923 176.145C100.558 176.602 100.151 177.045 99.8729 177.743ZM149.51 158.971C149.387 158.747 149.3 158.528 149.15 158.35C148.163 157.263 147.086 156.272 145.857 155.441C145.127 154.939 144.323 154.601 143.455 154.413C140.651 153.829 137.857 153.852 135.067 154.55C133.596 154.925 132.208 155.509 130.824 156.13C128.226 157.286 125.874 158.82 123.797 160.77C122.312 162.163 120.975 163.67 119.71 165.259C117.362 168.218 115.006 171.177 112.659 174.131C112.116 174.821 111.581 175.51 111.065 176.214C108.056 180.305 105.636 184.725 103.928 189.516C102.658 193.096 102.266 196.79 102.302 200.539C102.325 202.786 103.051 204.831 104.188 206.749C105.668 209.229 107.604 211.32 109.618 213.366C112.358 216.147 115.7 217.782 119.426 218.732C120.673 219.056 121.938 219.115 123.208 218.873C126.098 218.311 128.76 217.211 131.139 215.471C133.103 214.019 134.82 212.311 136.368 210.43C140.715 205.16 143.985 199.279 146.127 192.79C147.387 188.981 148.35 185.077 149.209 181.145C149.825 178.341 150.14 175.501 150.077 172.624C150.008 169.693 149.908 166.756 149.775 163.82C149.711 162.327 149.707 160.806 149.031 159.464C149.122 159.331 149.163 159.263 149.218 159.217C149.3 159.135 149.387 159.076 149.51 158.971ZM99.2245 184.584C99.293 184.57 99.3661 184.561 99.4391 184.547C99.3661 184.561 99.2976 184.561 99.2245 184.57C98.5852 185.123 97.7861 185.474 97.2016 186.114C97.2974 186.196 97.3294 186.232 97.3522 186.232C98.2747 186.068 98.8272 185.447 99.2702 184.689C99.2839 184.666 99.2382 184.62 99.2245 184.584ZM113.627 219.923C113.321 219.407 112.773 219.293 112.266 219.129C111.896 219.001 111.737 219.033 111.093 219.197C111.705 219.375 112.184 219.512 112.664 219.654C112.992 219.75 113.321 219.855 113.645 219.946C113.659 219.91 113.659 219.864 113.682 219.841C113.7 219.827 113.741 219.841 113.773 219.855C113.728 219.878 113.677 219.901 113.627 219.923ZM97.9687 191.401C98.0646 191.388 98.1559 191.374 97.9915 191.401C98.1559 191.351 98.0692 191.374 97.9824 191.401C97.5395 191.785 97.0874 192.159 96.6536 192.557C96.6033 192.602 96.6399 192.744 96.6353 192.872C97.4755 192.333 97.713 192.123 98.0007 191.612C98.0281 191.561 97.9733 191.47 97.9687 191.401ZM150.821 160.537C151.625 162.98 151.953 165.542 152.15 168.126C152.287 169.866 152.447 171.606 152.552 173.35C152.675 175.465 152.529 177.57 152.145 179.652C151.191 184.817 149.921 189.913 148.131 194.858C145.674 201.639 141.912 207.649 137.14 213.028C134.925 215.517 132.318 217.526 129.308 218.987C127.4 219.91 125.399 220.567 123.322 220.974C122.742 221.092 122.139 221.101 121.545 221.152C120.993 221.211 120.436 221.243 119.888 221.302C116.618 221.654 113.376 221.64 110.193 220.695C109.773 220.567 109.353 220.448 108.933 220.334C105.07 219.243 101.668 217.339 98.713 214.626C96.0873 212.206 93.8954 209.462 92.1556 206.338C90.8496 203.991 90.2468 201.466 90.0596 198.822C89.877 196.228 90.1509 193.666 90.772 191.132C91.9045 186.525 93.8954 182.291 96.512 178.355C99.1149 174.424 102.124 170.834 105.567 167.61C108.412 164.944 111.321 162.359 114.467 160.058C117.609 157.756 121.029 156.003 124.719 154.788C126.495 154.203 128.295 153.701 130.103 153.222C131.71 152.788 133.331 152.368 134.971 152.062C136.455 151.792 137.966 151.655 139.469 151.537C140.939 151.409 142.414 151.468 143.862 151.769C146.734 152.368 148.926 153.966 150.611 156.331C151.191 157.135 151.364 158.071 151.469 159.03C151.529 159.532 151.41 159.729 150.821 160.537Z" fill="white"/>
<path d="M126.468 181.278C125.651 181.383 124.925 181.556 124.24 181.894C121.011 183.474 118.527 185.872 116.627 188.886C116.335 189.356 116.12 189.881 115.91 190.393C114.403 194.078 114.645 197.781 115.951 201.452C116.518 203.041 117.499 204.398 118.833 205.475C119.879 206.306 121.048 206.891 122.395 207.005C124.249 207.17 126.039 206.877 127.719 206.046C130.838 204.503 133.003 202.037 134.478 198.927C135.222 197.361 135.596 195.712 135.56 193.973C135.51 191.612 135.067 189.319 134.268 187.096C133.957 186.232 133.532 185.424 132.993 184.68C132.372 183.826 131.619 183.123 130.587 182.817C129.792 182.575 128.989 182.328 128.176 182.164C127.5 182.022 126.847 181.917 126.468 181.278ZM113.49 203.055C112.426 200.073 112.079 197.361 112.467 194.603C112.951 191.119 114.33 188.045 116.787 185.484C118.477 183.73 120.349 182.2 122.491 181.018C123.614 180.401 124.806 179.954 126.094 179.84C127.18 179.734 128.231 179.826 129.171 180.493C129.418 180.666 129.747 180.748 130.048 180.821C130.82 181.018 131.596 181.182 132.368 181.369C133.277 181.602 134.044 182.082 134.688 182.771C135.587 183.73 136.359 184.794 136.857 186.022C137.962 188.744 138.496 191.584 138.492 194.521C138.487 195.922 138.222 197.292 137.688 198.589C136.752 200.891 135.5 203.019 133.788 204.832C131.098 207.672 127.856 209.471 123.879 209.731C119.961 209.973 116.924 208.407 114.709 205.215C114.166 204.443 113.773 203.557 113.49 203.055Z" fill="white"/>
<path d="M130.929 212.069C130.916 212.161 130.943 212.311 130.884 212.362C130.345 212.827 129.824 213.33 129.24 213.741C127.664 214.814 125.984 215.727 124.203 216.426C122.449 217.12 120.774 216.933 119.189 215.923C118.92 215.764 118.65 215.585 118.408 215.375C117.139 214.311 115.687 213.585 114.143 213.037C112.965 212.617 111.896 212.019 111.006 211.133C110.59 210.722 110.175 210.266 109.883 209.763C109.166 208.526 108.535 207.238 107.846 205.987C107.312 205.019 106.764 204.046 106.179 203.101C105.334 201.722 105.06 200.274 105.234 198.649C105.38 197.233 105.307 195.795 105.33 194.37C105.344 193.74 105.33 193.096 105.353 192.461C105.403 191.119 105.814 189.89 106.526 188.758C107.755 186.803 108.942 184.831 110.157 182.867C111.207 181.173 112.33 179.534 113.691 178.072C114.696 176.985 115.522 175.78 116.225 174.474C116.399 174.168 116.582 173.853 116.728 173.524C117.687 171.41 118.974 169.506 120.363 167.656C121.061 166.734 121.806 165.857 122.678 165.099C124.902 163.181 127.135 161.263 129.39 159.368C130.057 158.82 130.792 158.327 131.523 157.848C132.952 156.916 134.532 156.437 136.249 156.409C137.441 156.4 138.633 156.4 139.825 156.409C140.094 156.409 140.382 156.459 140.633 156.551C140.775 156.61 140.861 156.806 141.03 157.007C140.793 157.099 140.656 157.181 140.514 157.195C138.624 157.441 136.733 157.674 134.843 157.907C133.382 158.094 132.089 158.715 130.943 159.592C129.523 160.679 128.167 161.848 126.801 162.994C125.801 163.848 124.829 164.725 123.838 165.588C122.902 166.396 122.061 167.296 121.349 168.3C121.326 168.337 121.303 168.369 121.276 168.405C119.755 170.25 118.504 172.273 117.399 174.401C116.572 175.99 115.495 177.406 114.221 178.693C112.869 180.05 111.773 181.616 110.755 183.241C109.549 185.155 108.335 187.064 107.065 188.945C106.165 190.278 105.704 191.703 105.741 193.315C105.773 194.662 105.773 196.018 105.764 197.361C105.764 197.84 105.736 198.32 105.645 198.786C105.348 200.329 105.741 201.708 106.567 202.982C107.321 204.151 108.001 205.37 108.704 206.571C109.641 208.174 110.723 209.704 112.234 210.864C112.842 211.33 113.463 211.741 114.175 212.01C115.91 212.654 117.486 213.553 118.847 214.827C118.993 214.955 119.157 215.074 119.312 215.188C120.783 216.371 122.404 216.567 124.139 215.923C126.473 215.074 128.642 213.937 130.55 212.325C130.669 212.22 130.82 212.161 130.957 212.078L130.929 212.069Z" fill="white"/>
<path d="M110.526 199.242C110.006 199.219 109.778 198.845 109.599 198.439C109.083 197.219 108.645 195.968 108.567 194.662C108.339 190.767 109.138 187.146 111.663 184.045C112.801 182.657 114.125 181.465 115.668 180.529C116.189 180.214 116.746 180.004 117.358 180.004C117.531 180.004 117.76 180.095 117.878 180.214C118.061 180.41 117.979 180.68 117.824 180.867C117.554 181.205 117.267 181.543 116.961 181.849C116.157 182.68 115.321 183.461 114.531 184.305C112.559 186.383 111.321 188.826 110.919 191.68C110.609 193.845 110.463 196.018 110.832 198.192C110.928 198.731 110.91 198.731 110.526 199.242Z" fill="white"/>
<path d="M137.665 204.389C137.651 204.247 137.574 204.074 137.633 203.969C137.925 203.453 138.254 202.95 138.569 202.448C139.441 201.069 140.19 199.63 140.811 198.11C141.259 197.009 141.834 195.959 142.401 194.909C142.889 193.995 143.433 193.119 143.962 192.228C144.656 191.05 145.104 189.785 145.369 188.443C145.789 186.338 146.241 184.246 146.643 182.127C146.784 181.392 146.862 180.643 146.894 179.885C147.017 177.15 146.981 174.415 146.784 171.679C146.743 171.118 146.789 170.556 146.83 170.008C146.93 168.743 147.09 167.483 147.145 166.209C147.191 165.177 147.214 164.14 147.081 163.122C146.981 162.387 146.716 161.624 146.332 161.008C145.483 159.615 144.414 158.377 143.14 157.313C143.259 157.076 143.446 157.254 143.597 157.323C143.739 157.391 143.889 157.473 143.99 157.592C145.14 158.902 146.533 159.998 147.291 161.624C147.547 162.177 147.78 162.725 147.807 163.332C147.862 164.629 147.926 165.939 147.967 167.25C148.026 169.035 148.086 170.825 148.122 172.602C148.186 175.629 148.054 178.648 147.332 181.602C147.008 182.913 146.757 184.246 146.483 185.566C146.241 186.735 146.008 187.904 145.78 189.073C145.524 190.37 145.031 191.584 144.346 192.721C143.602 193.936 142.857 195.164 142.136 196.402C141.793 196.977 141.455 197.571 141.209 198.201C140.341 200.448 139.081 202.457 137.629 204.366" fill="white"/>
<path d="M134.304 179.323C134.359 179.547 134.414 179.675 134.404 179.78C134.395 179.967 134.404 180.214 134.29 180.328C134.094 180.538 133.861 180.387 133.66 180.246C132.112 179.127 130.359 178.588 128.468 178.319C126.655 178.063 124.856 177.794 123.02 178.013C122.829 178.036 122.628 177.99 122.431 177.967C122.358 177.967 122.258 177.921 122.226 177.876C122.176 177.771 122.148 177.652 122.157 177.547C122.162 177.488 122.253 177.419 122.322 177.383C122.527 177.264 122.733 177.113 122.956 177.054C125.322 176.52 127.692 176.026 130.135 176.565C131.45 176.844 132.61 177.419 133.551 178.387C133.852 178.702 134.094 179.068 134.304 179.323Z" fill="white"/>
<path d="M116.162 207.823C115.974 208.092 115.696 208.165 115.426 208.069C113.819 207.508 112.55 206.571 111.997 204.868C111.983 204.832 111.965 204.786 111.974 204.749C112.029 204.576 112.038 204.339 112.161 204.233C112.326 204.083 112.536 204.202 112.664 204.375C112.855 204.631 113.029 204.9 113.216 205.16C113.887 206.06 114.664 206.841 115.687 207.357C115.856 207.439 115.993 207.59 116.134 207.709C116.157 207.731 116.152 207.791 116.162 207.823Z" fill="white"/>
<path d="M132.299 210.841C131.998 211.425 131.601 211.905 130.929 212.069L130.957 212.078C131.34 211.59 131.724 211.097 132.331 210.864" fill="white"/>
<path d="M134.427 208.105C134.496 208.27 134.615 208.43 134.459 208.617C134.272 208.854 134.108 209.11 133.934 209.357L133.957 209.366C133.783 209.201 133.834 209.051 133.966 208.877C134.135 208.631 134.272 208.361 134.427 208.105Z" fill="white"/>
<path d="M137.628 204.366C137.505 204.539 137.382 204.704 137.103 205.078C137.208 204.526 137.304 204.315 137.66 204.389C137.665 204.389 137.628 204.366 137.628 204.366Z" fill="white"/>
<path d="M135.332 207.042C135.564 207.357 135.167 207.589 135.231 207.882C135.222 207.882 135.236 207.895 135.236 207.895C135.007 207.58 135.304 207.334 135.354 207.042" fill="white"/>
<path d="M136.738 205.58C136.706 205.58 136.674 205.58 136.642 205.589C136.665 205.544 136.683 205.498 136.715 205.462C136.72 205.452 136.775 205.484 136.806 205.498C136.784 205.521 136.761 205.544 136.738 205.58Z" fill="white"/>
<path d="M136.149 206.293C136.135 206.27 136.103 206.247 136.108 206.234C136.126 206.197 136.158 206.188 136.181 206.165C136.204 206.197 136.222 206.234 136.24 206.27C136.213 206.279 136.181 206.279 136.149 206.293Z" fill="white"/>
<path d="M135.354 207.041C135.414 207.005 135.478 206.968 135.537 206.936C135.564 206.923 135.601 206.923 135.637 206.914C135.61 206.959 135.596 207.041 135.56 207.051C135.496 207.064 135.418 207.051 135.341 207.041C135.331 207.041 135.354 207.041 135.354 207.041Z" fill="white"/>
<path d="M134.427 208.106C134.697 208.033 134.962 207.964 135.236 207.896C135.236 207.896 135.226 207.882 135.231 207.882C134.966 207.964 134.697 208.033 134.427 208.106Z" fill="white"/>
<path d="M133.934 209.357C133.802 209.485 133.674 209.613 133.532 209.731C133.528 209.731 133.56 209.741 133.56 209.741C133.468 209.403 133.519 209.343 133.952 209.366C133.957 209.366 133.934 209.357 133.934 209.357Z" fill="white"/>
<path d="M133.162 210.115C133.085 209.786 133.144 209.74 133.555 209.74C133.56 209.74 133.528 209.731 133.537 209.731C133.405 209.859 133.268 209.973 133.131 210.105C133.126 210.105 133.162 210.115 133.162 210.115Z" fill="white"/>
<path d="M132.811 210.526C132.72 210.197 132.761 210.151 133.158 210.115C133.163 210.115 133.126 210.105 133.126 210.105C133.016 210.242 132.902 210.37 132.784 210.503C132.779 210.503 132.811 210.526 132.811 210.526Z" fill="white"/>
<path d="M132.331 210.864C132.322 210.512 132.528 210.467 132.806 210.512C132.811 210.526 132.779 210.503 132.783 210.503C132.624 210.617 132.464 210.736 132.299 210.841" fill="white"/>
<path d="M132.167 194.452C129.989 193.352 128.167 193.831 126.514 195.21C124.577 196.822 124.486 199.64 126.24 201.453C126.692 201.923 127.231 202.142 127.852 202.014C129.674 201.631 131.076 200.704 131.665 198.836C131.975 197.84 132.167 196.822 132.203 195.795C132.222 195.361 132.181 194.932 132.167 194.452ZM132.363 192.909C132.966 193.667 133.071 194.544 133.13 195.42C133.226 196.859 133.003 198.261 132.573 199.64C132.304 200.494 131.797 201.197 131.117 201.781C130.244 202.516 129.226 202.95 128.126 203.183C126.989 203.43 126.007 203.101 125.244 202.188C124.18 200.927 123.641 199.466 123.737 197.804C123.765 197.338 123.879 196.859 124.043 196.416C124.838 194.274 127.806 192.265 130.208 192.521C130.596 192.571 130.984 192.676 131.372 192.744C131.674 192.804 131.98 192.849 132.363 192.909Z" fill="white"/>
<path d="M334.393 65.3594C334.274 65.3686 334.141 65.3594 334.046 65.4142C333.749 65.5786 333.424 65.7202 333.182 65.9531C329.977 68.9943 326.1 70.7021 321.89 71.8118C315.615 73.4831 309.3 74.9307 302.811 75.5152C296.907 76.054 290.988 75.9946 285.089 75.6339C278.947 75.2594 272.942 73.9032 266.978 72.4054C261.987 71.1542 257.187 69.4966 253.42 65.7567C253.064 65.3914 252.648 65.2042 252.279 65.7065C251.959 66.154 252.155 66.5969 252.388 67.0079C252.872 67.8481 253.708 68.2911 254.489 68.7705C256.471 69.9852 258.585 70.935 260.781 71.7068C270.727 75.1772 280.97 76.8485 291.514 76.5928C292.441 76.57 293.367 76.4878 294.29 76.5335C302.117 76.9536 309.807 75.9855 317.41 74.2548C321.817 73.2502 326.15 71.9625 330.223 69.9396C331.575 69.2637 332.913 68.5605 334.027 67.5194C334.699 66.9029 334.867 66.1768 334.393 65.3594ZM333.201 94.8174C336.689 94.2329 339.47 93.1781 341.95 91.4383C343.274 90.5022 344.462 89.3788 345.256 87.9176C346.261 86.0727 345.969 84.2964 344.425 82.9036C343.726 82.2735 342.927 81.794 342.005 81.5931C340.279 81.2323 338.543 81.2917 336.84 81.7483C336.16 81.9218 335.589 82.2963 335.493 83.1274C335.059 86.9129 334.246 90.63 333.201 94.8174ZM336.196 79.972C337.904 79.972 339.407 79.8761 340.895 79.9948C343.338 80.1683 345.357 81.1866 346.622 83.3831C347.804 85.4517 347.375 87.4061 346.124 89.2646C345.772 89.7898 345.576 90.2327 346.211 90.7031C346.357 90.8081 346.48 91.1095 346.439 91.2739C346.142 92.4063 344.608 93.6347 343.612 93.1918C341.909 92.4338 341.146 94.0229 339.9 94.3242C339.836 94.3379 339.767 94.8037 339.863 94.9453C340.466 95.7992 339.968 96.1965 339.238 96.4522C337.384 97.1098 335.516 97.7262 333.657 98.3838C333 98.603 332.31 98.7811 331.717 99.119C331.338 99.3427 331.191 99.8679 331.402 100.334C331.58 100.745 331.959 100.672 332.274 100.557C335.342 99.5163 338.438 98.5436 341.466 97.3883C343.968 96.4294 346.224 94.9909 348.261 93.2374C350.334 91.452 351.804 89.2738 352.471 86.5887C353.43 82.7529 351.535 78.4057 348.055 76.4969C346.096 75.433 343.964 74.8987 341.772 74.6064C340.105 74.369 338.553 74.8256 337.068 75.5608C336.415 75.8805 336 76.7801 336.269 77.2824C336.648 77.9947 337.251 77.5974 337.785 77.5518C338.589 77.4696 339.397 77.3737 340.206 77.3143C340.553 77.2915 340.909 77.2687 341.242 77.3509C341.429 77.3965 341.658 77.6066 341.713 77.7847C341.818 78.1363 341.671 78.5199 341.297 78.5792C340.384 78.7208 339.457 78.7527 338.539 78.8578C337.758 78.9537 336.941 78.9902 336.196 79.972ZM319.716 70.62C307.715 66.8435 277.673 66.8892 267.124 70.7113C281.513 75.8439 306.998 75.5289 319.716 70.62ZM267.932 120.056C266.435 120.385 265.092 120.709 263.74 120.978C262.955 121.143 262.156 121.248 261.352 121.316C261.229 121.33 260.978 121.061 260.959 120.896C260.937 120.709 261.064 120.417 261.22 120.335C261.612 120.102 262.042 119.914 262.485 119.8C263.599 119.494 264.727 119.225 265.855 118.956C266.165 118.887 266.288 118.736 266.161 118.535C266.046 118.348 265.909 118.102 265.727 118.033C265.412 117.928 265.046 117.869 264.722 117.905C262.882 118.138 261.023 118.312 259.215 118.7C257.863 118.978 256.534 119.449 255.27 119.997C253.813 120.65 253.753 121.659 255.082 122.59C255.932 123.175 256.85 123.714 257.804 124.102C259.521 124.791 261.265 125.431 263.046 125.938C269.307 127.7 275.723 128.728 282.189 129.349C287.029 129.814 291.883 130.413 296.77 130.015C299.08 129.814 301.395 129.664 303.706 129.445C310.638 128.778 317.501 127.691 324.223 125.828C326.566 125.189 328.89 124.417 330.972 123.12C331.73 122.65 332.767 122.243 332.566 121.083C332.411 120.184 331.497 119.974 330.771 119.636C330.086 119.307 329.552 119.216 328.949 119.878C328.315 120.581 327.424 120.184 326.639 120.093C323.976 119.773 321.323 119.727 318.684 120.357C317.967 120.536 317.378 120.782 317.145 121.554C316.57 123.504 314.999 124.499 313.373 125.431C311.752 126.39 309.98 126.988 308.167 127.317C301.761 128.472 295.299 129.207 288.783 128.728C284.043 128.39 279.33 127.737 274.846 125.992C271.882 124.837 269.074 123.504 267.932 120.056ZM283.198 56.286C276.536 56.4869 270.919 57.2449 265.366 58.5052C262.311 59.1948 259.32 60.0989 256.512 61.5099C255.594 61.9803 254.612 62.4004 253.982 63.2863C253.877 63.4278 253.881 63.7201 253.954 63.8982C254.059 64.1767 254.288 64.1904 254.521 64.0352C256.85 62.4826 259.325 61.1857 262.106 60.7519C263.507 60.5282 264.877 59.2907 266.352 60.3409C266.832 60.6925 265.768 61.2542 262.302 62.1173C260.27 62.6241 258.311 63.3137 256.539 64.469C255.466 65.1585 255.466 65.6973 256.553 66.5376C257.945 67.6015 259.516 68.3276 261.105 69.0537C262.617 69.7432 264.065 70.1724 265.654 69.2409C266.124 68.9578 266.782 69.0034 267.343 68.8756C271.869 67.7888 276.49 67.3778 281.097 66.9577C285.481 66.5741 289.86 65.9439 294.276 66.154C297.747 66.3184 301.222 66.501 304.674 66.8755C310.647 67.5193 316.693 67.7431 322.447 69.766C322.912 69.9304 323.328 69.8939 323.785 69.7432C326.228 68.9578 328.534 67.9075 330.552 66.291C331.301 65.6973 331.292 65.1585 330.557 64.6562C328.616 63.3228 326.451 62.542 324.168 62.0488C322.922 61.7931 321.666 61.583 320.547 60.9483C320.428 60.8798 320.433 60.5419 320.433 60.3409C320.428 60.2587 320.57 60.1674 320.661 60.108C321.09 59.8295 321.533 59.9345 321.99 60.0487C325.602 60.8935 329.21 61.7337 332.265 64.0352C332.379 64.1174 332.698 63.9895 332.899 63.921C333.137 63.8251 333.164 63.6059 332.959 63.3685C332.73 63.1265 332.484 62.8662 332.21 62.6698C330.397 61.3821 328.36 60.551 326.26 59.8752C318.246 57.2814 309.985 56.286 301.601 56.2997C299.888 56.2997 298.162 56.5645 296.427 56.4595C291.696 56.1672 286.961 56.7198 283.198 56.286ZM260.882 111.754C260.366 111.298 259.895 111.403 259.439 111.394C256.863 111.298 254.356 111.859 251.845 112.247C248.411 112.786 245.032 113.627 241.803 114.96C240.191 115.627 238.634 116.398 237.282 117.517C234.437 119.878 234.159 122.536 236.469 125.376C237.657 126.823 239.136 127.933 240.707 128.938C243.849 130.952 247.242 132.436 250.744 133.673C262.877 137.943 275.444 139.883 288.23 140.582C296.833 141.052 305.391 140.349 313.889 139.061C321.46 137.92 328.922 136.258 336.146 133.65C339.425 132.472 342.608 131.089 345.59 129.267C347.384 128.18 349.069 126.951 350.398 125.303C352.649 122.522 352.448 120.065 349.763 117.704C348.261 116.398 346.485 115.544 344.635 114.832C339.516 112.841 334.16 111.978 328.73 111.499C327.863 111.43 326.936 111.138 325.995 111.722C326.401 111.827 326.73 111.987 327.054 111.978C330.803 111.873 334.383 112.864 338.005 113.613C338.68 113.754 339.338 113.987 339.991 114.234C340.347 114.362 340.498 114.722 340.365 115.065C340.242 115.366 339.936 115.576 339.544 115.494C338.306 115.202 337.068 114.901 335.826 114.617C332.767 113.928 329.685 113.485 326.534 113.403C324.766 113.357 323.675 114.069 322.981 115.59C322.748 116.092 322.922 116.503 323.47 116.608C325.406 116.983 327.356 117.248 329.283 117.659C330.643 117.937 331.963 118.417 333.087 119.284C334.351 120.266 334.498 121.705 333.484 122.919C332.644 123.924 331.552 124.613 330.37 125.084C328.219 125.938 326.05 126.778 323.83 127.399C317.109 129.28 310.218 130.212 303.295 130.915C301.217 131.125 299.126 131.207 297.053 131.417C292.742 131.86 288.472 131.303 284.203 130.952C277.147 130.353 270.147 129.372 263.311 127.476C261.083 126.86 258.9 126.065 256.745 125.234C255.562 124.778 254.443 124.125 253.543 123.175C252.16 121.736 252.279 120.207 254.009 119.12C254.973 118.513 256.073 118.033 257.178 117.755C258.854 117.321 260.589 117.111 262.297 116.805C262.95 116.691 263.713 116.782 264.019 115.951C263.85 115.649 263.663 115.357 263.507 115.042C262.809 113.613 261.804 113.216 260.133 113.371C255.603 113.754 251.201 114.722 246.822 115.859C246.155 116.033 245.493 116.243 244.817 116.407C244.456 116.503 244.077 116.302 244.077 115.974C244.077 115.695 244.342 115.321 244.593 115.17C244.977 114.937 245.456 114.855 245.895 114.7C248.653 113.8 251.475 113.17 254.333 112.69C256.48 112.339 258.64 112.069 260.882 111.754ZM267.868 116.325L267.818 116.28C267.352 116.64 267.485 117.038 267.736 117.462C268.284 118.394 269.202 118.924 270.037 119.54C273.248 121.915 276.873 123.49 280.714 124.403C284.513 125.317 288.344 126.412 292.349 125.595C292.897 125.49 293.518 125.481 294.057 125.618C296.975 126.344 299.824 125.654 302.651 125.175C307.017 124.449 311.186 123.061 314.985 120.709C315.871 120.17 316.2 119.668 315.026 119.061C314.684 118.887 314.729 118.467 314.971 118.184C315.506 117.576 316.049 116.983 316.634 116.421C317.204 115.869 317.734 115.695 318.3 116.535C318.752 117.216 319.268 116.723 319.716 116.385C320.118 116.079 320.387 115.59 320.013 115.261C319.054 114.407 319.497 113.663 319.963 112.809C321.182 110.576 322.488 108.375 323.515 106.051C327.205 97.7262 329.315 88.9815 330.251 79.9354C330.347 79.0222 330.301 78.086 330.36 77.1636C330.392 76.6385 330.264 75.8211 331.045 75.9033C331.703 75.9718 331.689 76.7664 331.689 77.3417C331.689 78.3783 331.657 79.4194 331.602 80.4606C331.392 84.5293 330.42 88.4701 329.58 92.4338C328.657 96.7444 327.022 100.836 325.753 105.033C324.127 108.074 322.497 111.124 320.876 114.165C320.693 114.503 320.766 114.841 321.095 114.992C321.227 115.051 321.565 114.878 321.689 114.713C323.922 111.768 325.803 108.622 327.082 105.128C329.593 100.79 331.342 96.1508 332.561 91.3195C334.242 84.648 334.621 77.7938 335.201 70.9807C335.228 70.6428 335.196 70.2912 335.137 69.9533C335.036 69.3551 334.552 69.2044 334.141 69.4372C331.739 70.862 329.251 72.1269 326.62 73.0402C317.912 76.0768 308.939 77.7618 299.715 78.0313C297.048 78.1134 294.372 77.9719 291.705 78.0541C284.353 78.287 277.106 77.4468 269.951 75.8302C263.836 74.4512 257.818 72.7342 252.475 69.25C252.32 69.1587 252.036 69.2637 251.703 69.2729C251.744 75.7754 252.42 82.2278 253.662 88.598C255.37 97.3655 259.197 105.279 263.772 112.864C264.425 113.955 265.224 114.969 266.092 115.891C266.485 116.316 267.11 116.901 267.868 116.325ZM317.168 118.207C316.771 118.325 316.524 118.549 316.551 118.992C316.227 119.029 315.953 119.143 315.871 119.481C315.857 119.54 316.045 119.727 316.063 119.718C316.314 119.577 316.551 119.412 316.789 119.261C317.104 119.083 317.419 118.91 317.73 118.736C317.949 118.549 318.159 118.362 318.378 118.175C318.716 117.823 319.323 117.462 318.711 116.955C318.314 116.64 318.017 117.097 317.839 117.485C317.465 117.59 317.236 117.823 317.168 118.207ZM293.527 54.9206C297.706 54.9206 301.889 54.7425 306.053 54.9526C312.894 55.3042 319.675 56.2038 326.223 58.3682C327.972 58.939 329.68 59.6879 331.347 60.4825C332.278 60.9254 333.141 61.5602 333.945 62.2132C335.817 63.7429 337.142 65.5558 336.731 68.186C336.639 68.7477 336.648 69.3459 336.703 69.9304C336.813 71.1542 335.831 72.652 336.886 73.5288C337.772 74.264 339.041 73.1452 340.187 73.1452C343.873 73.168 347.407 73.9489 350.284 76.2869C353.494 78.8943 354.668 82.4835 353.914 86.5613C353.321 89.7761 351.549 92.3287 349.092 94.4201C346.32 96.7673 343.169 98.4751 339.74 99.6441C336.89 100.617 334.004 101.466 331.123 102.334C330.548 102.507 330.068 102.635 329.79 103.256C328.927 105.151 327.995 107.01 327.141 108.914C326.922 109.393 327.168 109.827 327.744 109.873C331.1 110.142 334.42 110.645 337.717 111.325C340.786 111.955 343.795 112.795 346.653 114.115C348.238 114.855 349.74 115.718 351.024 116.923C353.8 119.531 354.124 122.536 351.964 125.632C350.891 127.184 349.476 128.381 347.946 129.445C345.366 131.244 342.562 132.623 339.662 133.815C332.338 136.842 324.684 138.641 316.912 140.011C311.766 140.92 306.574 141.427 301.377 141.879C295.587 142.381 289.801 142.276 284.006 141.765C275.91 141.039 267.891 139.906 259.996 137.952C254.475 136.573 249.073 134.865 243.936 132.39C241.739 131.326 239.629 130.107 237.721 128.591C236.351 127.504 235.118 126.275 234.282 124.709C233.045 122.394 233.259 119.928 234.899 117.892C236.008 116.503 237.447 115.531 238.99 114.713C242.086 113.051 245.424 112.092 248.831 111.371C252.123 110.681 255.443 110.156 258.804 109.909C259.722 109.836 259.941 109.407 259.535 108.508C259.156 107.663 258.717 106.845 258.315 106.005C254.986 99.0825 252.347 91.9543 251.457 84.237C250.794 78.4742 250.155 72.7205 250.201 66.9029C250.214 65.5193 250.653 64.5283 251.562 63.51C253.069 61.8022 254.904 60.6697 256.923 59.7473C260.749 58.0029 264.809 57.0714 268.914 56.3088C277.056 54.7882 285.285 54.6146 293.527 54.9206Z" fill="white"/>
<path d="M267.868 116.325C268.617 115.718 267.873 115.321 267.603 114.96C264.475 110.763 261.767 106.306 259.772 101.457C257.429 95.7535 255.717 89.8582 254.397 83.8534C254.301 83.4059 254.114 82.9629 254.384 82.52C254.438 82.4241 254.521 82.2962 254.603 82.2825C254.804 82.2597 255.155 82.2369 255.192 82.3191C255.502 83.0542 255.813 83.794 256.027 84.5657C257.009 88.0225 257.881 91.5067 258.932 94.9452C260.745 100.859 263.471 106.32 266.873 111.498C269.467 115.448 272.946 118.138 277.211 119.951C277.736 120.17 278.289 120.335 278.81 120.558C279.074 120.677 279.106 120.919 278.924 121.152C278.791 121.33 278.654 121.563 278.472 121.631C277.878 121.855 277.344 121.577 276.809 121.353C273.882 120.147 271.247 118.499 268.896 116.385C268.576 116.106 268.238 115.709 267.818 116.28L267.868 116.325Z" fill="white"/>
<path d="M280.157 133.358C272.709 132.234 265.334 131.371 258.302 128.86C256.786 128.307 255.338 127.558 253.904 126.814C253.306 126.508 252.79 125.992 252.301 125.513C252.091 125.302 251.872 124.919 252.301 124.659C252.479 124.544 252.721 124.522 252.941 124.499C253.037 124.485 253.151 124.59 253.242 124.649C256.987 127.398 261.352 128.485 265.782 129.476C269.969 130.399 274.202 131.042 278.44 131.663C279.344 131.791 280.225 132.084 281.116 132.33C281.399 132.399 281.426 132.622 281.225 132.869C281.157 132.96 281.107 133.088 281.02 133.125C280.705 133.23 280.371 133.298 280.157 133.358Z" fill="white"/>
<path d="M309.775 132.495C309.569 132.472 309.126 132.413 308.683 132.331C308.578 132.308 308.4 132.203 308.405 132.143C308.428 131.933 308.455 131.582 308.574 131.536C309.213 131.303 309.875 131.02 310.542 130.974C314.232 130.691 317.835 129.874 321.465 129.23C323.502 128.869 325.543 128.472 327.461 127.632C327.872 127.444 328.351 127.385 328.803 127.362C328.977 127.339 329.278 127.527 329.328 127.677C329.388 127.851 329.301 128.193 329.155 128.298C328.027 129.152 326.68 129.513 325.346 129.814C320.291 130.997 315.195 131.942 309.775 132.495Z" fill="white"/>
<path d="M298.952 56.8472C301.327 57.0572 303.555 56.9294 305.669 57.6646C306.003 57.7833 306.204 58.1075 305.994 58.4728C305.889 58.6463 305.624 58.8564 305.469 58.8336C302.025 58.2491 298.532 58.5641 295.08 58.2628C294.769 58.2399 294.472 57.8974 294.568 57.5002C294.609 57.3358 294.833 57.1029 294.988 57.0801C296.368 56.975 297.756 56.9157 298.952 56.8472Z" fill="white"/>
<path d="M288.216 56.8335C289.376 56.9294 290.637 57.0207 291.897 57.1394C292.208 57.1623 292.235 57.3495 292.198 57.6418C292.162 57.9112 292.125 58.0984 291.847 58.1669C291.518 58.2491 291.185 58.3769 290.856 58.3906C287.737 58.4272 284.614 58.3176 281.517 58.8564C281.412 58.8793 281.262 58.8701 281.184 58.8108C281.02 58.6829 280.86 58.5185 280.741 58.3313C280.558 58.0756 280.65 57.9112 280.938 57.7924C283.253 56.8472 285.709 57.0801 288.216 56.8335Z" fill="white"/>
<path d="M478.405 175.771C478.501 175.817 478.597 175.862 478.692 175.912C478.738 175.803 478.834 175.689 478.811 175.62C478.784 175.547 478.633 175.524 478.537 175.479C478.496 175.57 478.45 175.675 478.405 175.771ZM465.788 160.866C465.737 160.957 465.683 161.053 465.628 161.145C465.724 161.19 465.838 161.3 465.915 161.272C465.989 161.25 466.025 161.113 466.08 161.017C465.984 160.971 465.888 160.912 465.788 160.866ZM456.518 142.673C455.193 143.623 453.677 144.523 452.568 145.902C452.412 146.089 452.517 146.486 452.499 146.792C452.819 146.733 453.28 146.792 453.435 146.605C454.604 145.144 456.061 144.03 457.614 143.039C457.668 143.002 457.655 142.852 457.659 142.756C457.678 142.463 457.536 142.349 457.239 142.441C457.034 142.5 456.833 142.568 456.518 142.673ZM467.765 161.25C467.418 160.994 467.048 160.807 466.842 161.346C466.801 161.437 467.203 161.706 467.395 161.907C467.874 162.177 468.349 162.441 468.824 162.711C472.372 164.674 475.226 167.273 476.61 171.223C476.701 171.492 476.838 171.748 476.998 172.113C477.478 170.36 476.793 169.003 475.957 167.729C474.573 165.601 472.948 163.706 470.783 162.314C470.354 162.035 469.733 161.907 469.783 161.19C469.98 160.291 470.623 160.642 471.003 160.889C475.026 163.505 477.98 166.907 478.775 171.821C478.898 172.602 478.998 173.387 479.108 174.159C480.314 172.159 481.131 170.136 481.852 168.076C482.263 166.885 482.085 166.665 480.839 166.241C480.533 166.136 480.195 166.081 479.916 165.917C479.756 165.834 479.587 165.574 479.592 165.414C479.606 165.099 479.729 164.83 480.172 164.83C480.711 164.83 481.405 164.935 481.752 164.642C482.318 164.186 481.925 163.423 481.775 162.83C481.56 161.989 481.236 161.158 480.861 160.364C479.729 157.953 478.154 155.838 476.464 153.806C474.852 151.852 473.204 149.934 471.582 148.007C470.016 146.135 468.327 144.418 466.185 143.212C465.176 142.651 464.217 141.856 463.011 143.002C462.728 143.272 461.952 143.039 461.408 143.002C460.851 142.966 460.271 142.934 459.828 143.294C458.294 144.532 456.65 145.669 455.618 147.409C454.02 150.112 454.458 153.29 456.737 155.51C458.344 157.09 460.23 158.19 462.436 158.67C463.619 158.925 464.82 159.076 466.002 159.332C466.961 159.546 467.92 159.779 468.852 160.081C469.258 160.208 469.089 160.583 468.938 160.866C468.669 161.378 468.158 161.122 467.765 161.25ZM464.523 177.616C464.687 177.547 464.861 177.479 465.025 177.383C465.039 177.383 465.011 177.241 464.988 177.232C464.619 177.15 464.614 177.465 464.518 177.675C464.404 177.022 464.212 176.401 463.527 176.095C463.34 175.839 462.993 175.57 463.002 175.328C463.02 174.766 463.5 174.661 463.938 174.848C466.089 175.757 468.372 176.122 470.66 176.447C471.45 176.565 472.14 176.821 472.71 177.374C472.066 177.922 471.322 177.944 470.537 177.803C469.674 177.666 468.811 177.502 467.938 177.419C467.619 177.397 467.336 177.689 467.331 178.05C467.327 178.223 467.445 178.506 467.596 178.588C468.664 179.241 469.884 179.301 471.085 179.346C472.528 179.392 472.688 179.159 472.619 177.346C473.546 176.753 474.487 176.177 475.386 175.561C475.852 175.232 475.724 174.903 475.336 174.529C475.14 174.355 474.98 173.771 475.062 173.711C476.016 172.963 475.601 172.136 475.245 171.341C474.299 169.2 473.025 167.318 471.126 165.866C469.541 164.652 467.856 163.647 466.016 162.889C464.381 162.231 462.751 161.578 461.107 160.935C458.353 159.871 456.12 158.19 454.618 155.592C454.234 154.925 453.773 154.309 453.339 153.674C453.079 153.29 452.728 153.08 452.239 153.089C451.499 153.103 450.358 153.455 450.184 152.637C449.915 151.432 451.622 152.19 451.974 151.372C451.892 151.29 451.079 150.039 451.038 149.925C451.17 149.409 451.787 149.61 451.997 149.29C452.152 149.057 452.138 148.706 452.198 148.413C451.992 148.381 451.782 148.308 451.581 148.331C451.28 148.381 450.933 148.427 450.695 148.601C450.125 149.012 450.558 149.199 450.915 149.423C451.029 149.5 451.015 149.761 451.061 149.934C451.047 150.039 451.061 150.158 451.015 150.263C450.727 150.93 449.75 150.45 449.485 151.176C449.248 151.838 449.458 152.473 449.568 153.117C449.7 153.875 449.746 154.656 449.997 155.373C452.152 161.496 454.792 167.378 458.933 172.474C459.97 173.748 461.02 175.008 462.422 175.922C462.787 176.154 463.135 176.424 463.55 176.04C463.418 176.844 464.272 177.054 464.523 177.616ZM450.782 161.25C449.928 158.994 448.654 156.423 448.175 153.56C447.709 150.779 448.234 148.391 450.275 146.299C451.741 144.801 453.116 143.258 454.929 142.148C458.737 139.833 462.564 139.591 466.5 141.81C468.637 143.025 470.464 144.582 472.039 146.45C474.021 148.802 475.998 151.176 478.003 153.5C479.45 155.185 480.619 157.053 481.683 158.985C483.706 162.629 484.245 166.442 482.524 170.392C481.948 171.711 481.277 173.022 480.985 174.401C480.318 177.502 478.081 178.995 475.464 180.027C472.706 181.1 469.843 180.949 467.048 179.99C463.861 178.89 461.134 177.091 458.911 174.542C455.545 170.684 452.983 166.346 450.782 161.25Z" fill="white"/>
<path d="M461.664 149.806C461.221 148.861 461.518 148.358 462.358 148.413C463.861 148.546 465.368 148.66 466.875 148.824C467.034 148.838 467.235 149.071 467.299 149.235C467.359 149.395 467.317 149.664 467.212 149.806C467.021 150.062 466.774 150.299 466.505 150.459C465.806 150.893 465.619 152.13 464.537 151.897C463.253 151.628 461.97 151.222 461.664 149.806Z" fill="white"/>
<path d="M467.45 154.843C467.528 154.655 467.569 154.34 467.683 154.308C468.916 153.993 470.153 153.546 471.427 154.121C471.569 154.176 471.706 154.459 471.683 154.623C471.665 154.797 471.464 155.08 471.322 155.089C470.162 155.194 468.998 155.254 467.834 155.29C467.71 155.29 467.578 154.998 467.45 154.843Z" fill="white"/>
<path d="M469.806 161.204C469.286 161.661 468.994 161.533 468.907 160.866C469.112 160.738 469.121 160.341 469.56 160.514C469.994 160.679 469.738 160.971 469.806 161.204Z" fill="white"/>
<path d="M462.125 168.3C462.171 168.099 462.249 167.729 462.262 167.729C463.5 167.912 465.153 166.711 465.843 168.789C465.902 168.967 466.377 169.049 466.669 169.081C467.144 169.154 467.532 169.305 467.4 169.866C467.286 170.36 466.829 170.465 466.391 170.519C464.441 170.802 463.112 169.88 462.125 168.3Z" fill="white"/>
<path d="M468.491 172.908C466.957 173.433 465.391 173.547 463.856 172.707C463.733 172.638 463.651 172.323 463.701 172.159C463.751 171.994 463.984 171.771 464.144 171.771C465.546 171.739 466.948 171.748 468.35 171.784C468.482 171.784 468.683 172.063 468.715 172.241C468.742 172.405 468.596 172.615 468.491 172.908Z" fill="white"/>
<path d="M453.728 161.46C453.796 161.3 453.86 160.971 453.952 160.957C455.28 160.82 456.541 161.062 457.673 161.811C457.746 161.857 457.806 162.044 457.769 162.103C457.664 162.282 457.518 162.537 457.367 162.56C456.139 162.679 454.979 162.432 453.924 161.766C453.842 161.706 453.805 161.578 453.728 161.46Z" fill="white"/>
<path d="M488.99 194.753C488.944 194.685 488.898 194.616 488.853 194.543C488.784 194.589 488.675 194.625 488.666 194.685C488.652 194.744 488.739 194.826 488.784 194.895C488.853 194.849 488.921 194.799 488.99 194.753ZM491.451 209.658C491.524 209.626 491.597 209.576 491.666 209.544C491.625 209.471 491.593 209.357 491.533 209.343C491.474 209.334 491.392 209.411 491.319 209.448C491.36 209.521 491.405 209.589 491.451 209.658ZM490.383 225.44C491.638 225.325 493.004 225.348 494.287 224.869C494.465 224.796 494.556 224.494 494.684 224.293C494.451 224.211 494.168 223.978 493.995 224.051C492.634 224.554 491.227 224.718 489.794 224.764C489.743 224.764 489.698 224.869 489.652 224.928C489.524 225.115 489.579 225.243 489.807 225.303C489.972 225.348 490.131 225.38 490.383 225.44ZM490.291 208.631C490.419 208.936 490.593 209.201 490.94 208.936C491.008 208.877 490.848 208.548 490.794 208.338C490.584 207.978 490.378 207.603 490.163 207.238C488.588 204.516 487.725 201.653 488.378 198.484C488.419 198.274 488.433 198.05 488.469 197.749C487.455 198.708 487.373 199.886 487.419 201.069C487.497 203.018 487.821 204.936 488.707 206.726C488.885 207.073 489.241 207.402 488.93 207.859C488.437 208.384 488.15 207.895 487.994 207.58C486.36 204.247 485.752 200.808 487.177 197.219C487.401 196.662 487.647 196.1 487.885 195.539C486.286 196.393 484.939 197.406 483.642 198.493C482.898 199.114 482.93 199.338 483.588 200.11C483.752 200.306 483.948 200.484 484.072 200.694C484.14 200.822 484.154 201.046 484.085 201.16C483.953 201.361 483.761 201.498 483.469 201.324C483.113 201.101 482.688 200.763 482.346 200.808C481.789 200.89 481.743 201.557 481.61 202C481.419 202.658 481.3 203.333 481.236 204.014C481.03 206.06 481.236 208.092 481.551 210.115C481.848 212.055 482.181 213.982 482.492 215.914C482.789 217.773 483.227 219.585 484.172 221.234C484.62 222.015 484.939 222.928 486.2 222.636C486.492 222.576 486.912 223.033 487.264 223.28C487.615 223.522 487.99 223.768 488.433 223.709C489.94 223.499 491.479 223.394 492.858 222.645C494.995 221.49 495.967 219.197 495.342 216.814C494.899 215.129 494.081 213.658 492.803 212.466C492.118 211.822 491.383 211.238 490.698 210.594C490.145 210.078 489.606 209.544 489.104 208.968C488.885 208.722 489.145 208.548 489.36 208.42C489.739 208.174 489.981 208.548 490.291 208.631ZM498.949 199.046C498.808 199.023 498.666 199 498.525 198.986C498.515 198.986 498.474 199.091 498.488 199.105C498.698 199.315 498.826 199.105 498.977 199C498.789 199.489 498.671 199.968 499.004 200.448C499.027 200.694 499.155 201.009 499.05 201.174C498.812 201.534 498.452 201.406 498.237 201.114C497.168 199.653 495.798 198.507 494.41 197.374C493.931 196.977 493.57 196.543 493.41 195.945C494.054 195.84 494.561 196.123 495.027 196.52C495.543 196.963 496.054 197.42 496.602 197.817C496.803 197.959 497.109 197.877 497.255 197.644C497.328 197.511 497.356 197.292 497.296 197.173C496.844 196.31 496.054 195.794 495.273 195.278C494.337 194.671 494.141 194.767 493.46 196.004C492.611 196.027 491.762 196.027 490.912 196.087C490.474 196.123 490.428 196.393 490.538 196.79C490.597 196.986 490.474 197.429 490.396 197.443C489.465 197.562 489.41 198.283 489.328 198.95C489.109 200.753 489.209 202.507 489.894 204.224C490.465 205.662 491.177 206.996 492.104 208.233C492.926 209.32 493.753 210.407 494.593 211.471C495.995 213.284 496.812 215.293 496.776 217.608C496.771 218.206 496.826 218.8 496.862 219.398C496.881 219.75 497.036 220.028 497.36 220.216C497.858 220.508 498.757 220.732 498.552 221.339C498.246 222.248 497.415 221.056 496.858 221.467C496.876 221.549 496.922 222.704 496.903 222.8C496.611 223.092 496.282 222.704 496.013 222.832C495.817 222.928 495.689 223.161 495.534 223.334C495.657 223.439 495.766 223.581 495.908 223.64C496.132 223.723 496.378 223.841 496.602 223.814C497.15 223.768 496.931 223.476 496.785 223.175C496.739 223.092 496.853 222.914 496.89 222.786C496.945 222.718 496.986 222.636 497.05 222.59C497.506 222.248 497.967 222.965 498.433 222.576C498.853 222.238 498.968 221.736 499.15 221.257C499.36 220.704 499.643 220.17 499.758 219.595C500.762 214.663 501.347 209.704 500.616 204.681C500.433 203.429 500.237 202.164 499.671 201.009C499.52 200.703 499.397 200.388 498.972 200.47C499.378 199.991 498.894 199.511 498.949 199.046ZM501.57 215.375C501.246 217.211 501.068 219.43 500.246 221.526C499.452 223.549 498.159 224.937 495.972 225.513C494.401 225.919 492.871 226.398 491.227 226.412C487.775 226.444 485.136 225.079 483.405 222.038C482.464 220.389 481.871 218.626 481.569 216.768C481.186 214.407 480.816 212.055 480.409 209.704C480.117 208.01 480.081 206.306 480.14 204.598C480.245 201.37 481.4 198.635 484.122 196.685C485.022 196.041 485.99 195.434 486.734 194.639C488.405 192.835 490.488 192.73 492.634 193.096C494.899 193.47 496.739 194.708 498.214 196.461C499.895 198.461 500.99 200.726 501.456 203.311C502.159 207.215 502.137 211.119 501.57 215.375Z" fill="white"/>
<path d="M489.793 218.649C489.716 219.458 489.314 219.677 488.784 219.302C487.83 218.627 486.88 217.937 485.944 217.234C485.843 217.165 485.798 216.933 485.825 216.791C485.853 216.663 485.985 216.499 486.113 216.439C486.341 216.357 486.592 216.298 486.839 216.298C487.478 216.289 488.095 215.54 488.72 216.124C489.465 216.814 490.154 217.586 489.793 218.649Z" fill="white"/>
<path d="M487.953 213.015C487.826 213.097 487.675 213.293 487.588 213.27C486.643 212.992 485.643 212.791 485.022 211.914C484.953 211.809 484.976 211.567 485.049 211.471C485.136 211.366 485.378 211.261 485.478 211.307C486.291 211.704 487.09 212.115 487.876 212.558C487.958 212.604 487.931 212.85 487.953 213.015Z" fill="white"/>
<path d="M488.917 207.845C489.442 207.754 489.588 207.951 489.378 208.43C489.191 208.43 489.027 208.69 488.807 208.407C488.584 208.115 488.871 208.024 488.917 207.845Z" fill="white"/>
<path d="M496.84 206.174C496.73 206.293 496.529 206.516 496.52 206.503C495.776 205.895 494.196 206.037 494.566 204.375C494.593 204.233 494.31 204 494.132 203.849C493.844 203.617 493.648 203.37 493.954 203.041C494.228 202.763 494.575 202.877 494.89 203.009C496.296 203.603 496.812 204.735 496.84 206.174Z" fill="white"/>
<path d="M494.438 200.589C495.666 200.859 496.753 201.407 497.442 202.562C497.497 202.658 497.42 202.905 497.324 202.996C497.223 203.078 496.981 203.137 496.876 203.078C495.936 202.539 495.004 201.978 494.086 201.393C493.999 201.347 493.977 201.078 494.027 200.95C494.072 200.822 494.251 200.74 494.438 200.589Z" fill="white"/>
<path d="M499.698 214.065C499.589 214.147 499.415 214.334 499.351 214.311C498.415 213.868 497.671 213.211 497.219 212.265C497.191 212.206 497.223 212.055 497.273 212.033C497.41 211.95 497.611 211.845 497.716 211.891C498.584 212.302 499.255 212.918 499.689 213.786C499.721 213.855 499.694 213.96 499.698 214.065Z" fill="white"/>
</svg>
