<svg width="675" height="675" viewBox="0 0 675 675" fill="none" xmlns="http://www.w3.org/2000/svg">
<path d="M674.073 337.036C674.073 523.182 523.177 674.078 337.036 674.078C150.896 674.078 0 523.182 0 337.036C0 150.906 150.896 0 337.036 0C523.177 0 674.073 150.906 674.073 337.036Z" fill="#017143"/>
<path d="M674.073 337.036C674.073 523.182 523.177 674.078 337.036 674.078C150.896 674.078 0 523.182 0 337.036C0 150.906 150.896 0 337.036 0C523.177 0 674.073 150.906 674.073 337.036Z" fill="#017143"/>
<path d="M309.635 531.172C310.448 551.943 311.385 572.724 312.479 593.495C313.01 603.568 312.328 614.74 314.229 624.636C314.839 627.802 315.219 630.995 319.021 631.682C332.391 634.094 326.557 605.886 326.172 600.354C324.667 579 322.542 557.708 319.885 536.464C319.604 534.198 316.031 534.292 316.318 536.573C318.182 551.49 319.797 566.448 321.104 581.432C321.76 588.922 322.333 596.417 322.839 603.922C323.094 607.677 324.151 612.333 323.594 616.042C323.656 617.198 323.724 618.349 323.786 619.505C319.062 626.203 317 626.724 317.594 621.073C316.062 614.636 316.776 606.901 316.422 600.307C315.979 592.234 315.562 584.156 315.172 576.078C314.437 561.078 313.786 546.078 313.208 531.063C313.115 528.761 309.547 528.88 309.635 531.172Z" fill="white"/>
<path d="M310.984 529.427C304.156 528.729 304.646 512 304.016 507C303.656 504.12 303.104 501.182 302.922 498.292C302.479 491.156 304.005 498.412 304.719 502.104C305.557 506.453 304.099 519.172 308.74 521.625C312.912 523.823 314.859 519.026 315.005 515.88C315.25 510.625 313.943 504.703 313.422 499.479C313.276 498.063 313 491.333 315.26 495.172C316.094 496.583 315.688 502.771 315.781 504.438C315.969 507.813 314.365 519.266 318.677 521.24C321.849 522.693 323.662 519.745 324.432 517.266C325.771 512.943 324.563 506.557 324.427 502.052C324.391 500.729 322.844 493.078 324.974 496.609C326.396 498.974 325.818 501.906 325.828 504.641C325.854 509.823 326.406 515.292 325.849 520.453C326.12 522.865 325.458 525.026 323.859 526.943C323.641 529.573 322.401 530.974 320.146 531.156C319.62 531.703 318.615 532.37 318.099 532.88C316.458 534.479 319.089 536.891 320.729 535.292C324.057 532.037 326.516 533.943 328.51 529.224C330.823 523.745 329.453 515.359 329.422 509.609C329.401 505.37 331.755 485.797 321.672 490.359C320.953 490.677 320.349 491.266 320.396 492.12C320.51 494.094 322.646 514.891 320.979 515.547C319.969 515.943 319.115 497 318.828 495.063C318.234 491.037 314.521 484.172 310.177 489.625C307.927 492.438 309.724 498.333 310.021 501.276C310.323 504.276 311.328 508.505 311.047 511.49C312.391 514.76 311.969 515.677 309.776 514.266C309.495 511.932 309.214 509.583 308.927 507.25C308.156 500.906 309.26 487.891 299.755 489.677C299.047 489.813 298.391 490.719 298.479 491.438C299.797 501.917 300.693 512.573 302.448 522.984C303.297 527.984 304.63 532.344 310.182 532.906C312.438 533.13 313.266 529.651 310.984 529.427Z" fill="white"/>
<path d="M358.266 533.88C348.844 531.198 346.125 522.172 345.047 513.516C344.005 505.146 344.865 485.865 359.984 492.344C374.823 498.703 367.245 524.37 358.438 532.344C356.734 533.891 359.37 536.292 361.063 534.76C369.271 527.333 373.297 513.599 371.198 502.729C369.604 494.453 362.448 486.198 353.203 487.703C341.74 489.573 340.432 502.974 341.307 512.146C342.349 523.078 345.927 534.078 357.464 537.359C359.677 537.984 360.469 534.505 358.266 533.88Z" fill="white"/>
<path d="M352.151 536.516C351.557 567.641 351.057 598.76 350.641 629.88C350.635 630.458 351.037 631.198 351.599 631.411C364.849 636.49 361.427 608.224 361.62 602.214C362.37 579.286 362.651 556.349 362.521 533.411C362.505 531.104 358.943 531.224 358.953 533.516C359.037 548.427 358.953 563.333 358.672 578.24C358.521 586.271 358.318 594.292 358.057 602.318C357.859 608.339 359.703 620.344 355.76 624.63C353.979 627.37 353.495 626.781 354.302 622.859C354.333 620.557 354.37 618.25 354.396 615.948C354.448 612.49 354.495 609.031 354.547 605.573C354.656 598.078 354.776 590.589 354.896 583.099C355.146 567.536 355.422 551.974 355.719 536.427C355.76 534.12 352.193 534.24 352.151 536.516Z" fill="white"/>
<path d="M154.208 494.411C138.479 495.531 120.537 477.974 116.917 463.557C112.984 447.891 115.49 429.213 118.359 413.609C118.75 411.49 115.469 410.719 115.078 412.865C111.787 430.703 108.021 454.307 116.109 471.344C122.297 484.37 139.234 498.849 154.313 497.786C156.474 497.625 156.375 494.25 154.208 494.411Z" fill="white"/>
<path d="M157.661 496.37C168.99 462.104 135.656 434.146 119.448 407.667C118.312 405.813 115.453 407.599 116.589 409.453C132.208 434.958 165.245 462.729 154.375 495.609C153.698 497.677 156.984 498.411 157.661 496.37Z" fill="white"/>
<path d="M155.427 494.094C139.974 470.037 128.672 443.849 121.75 416.12C121.219 414.011 117.995 414.974 118.516 417.078C125.516 445.104 136.958 471.573 152.563 495.88C153.74 497.703 156.599 495.917 155.427 494.094Z" fill="white"/>
<path d="M130.641 456.849C125.911 453.146 121.187 449.427 116.458 445.719C114.766 444.385 112.469 446.849 114.177 448.198C118.906 451.906 123.63 455.625 128.359 459.333C130.052 460.667 132.354 458.198 130.641 456.849Z" fill="white"/>
<path d="M126.5 442.437C123.151 439.891 119.802 437.333 116.448 434.771C114.74 433.479 112.438 435.943 114.167 437.25C117.521 439.812 120.87 442.37 124.219 444.917C125.927 446.224 128.229 443.76 126.5 442.437Z" fill="white"/>
<path d="M142.745 476.37C133.385 474.625 124.76 471.052 116.995 465.516C115.255 464.276 112.948 466.729 114.713 468C122.963 473.88 132.026 477.797 141.99 479.651C144.115 480.052 144.885 476.771 142.745 476.37Z" fill="white"/>
<path d="M139.703 464.49C139.948 457.849 140.604 451.276 141.667 444.729C142.016 442.599 138.734 441.823 138.385 443.974C137.271 450.812 136.589 457.667 136.333 464.583C136.255 466.76 139.625 466.651 139.703 464.49Z" fill="white"/>
<path d="M148.13 477.974C148.5 471.516 148.87 465.052 149.24 458.599C149.365 456.437 145.995 456.557 145.875 458.703C145.5 465.156 145.13 471.609 144.76 478.062C144.635 480.24 148.005 480.12 148.13 477.974Z" fill="white"/>
<path d="M133.99 449.318C133.526 445.276 134.005 441.344 135.589 437.583C136.422 435.609 133.448 434.026 132.604 436.026C130.802 440.307 130.089 444.797 130.62 449.427C130.865 451.557 134.234 451.479 133.99 449.318Z" fill="white"/>
<path d="M517.474 490.078C533.203 491.198 551.146 473.641 554.766 459.24C558.698 443.557 556.193 424.88 553.323 409.292C552.932 407.156 556.213 406.385 556.604 408.531C559.896 426.37 563.661 449.974 555.573 467.01C549.385 480.036 532.448 494.516 517.37 493.453C515.208 493.292 515.307 489.917 517.474 490.078Z" fill="white"/>
<path d="M514.021 492.036C502.693 457.771 536.026 429.812 552.235 403.333C553.37 401.479 556.224 403.266 555.094 405.12C539.474 430.625 506.438 458.396 517.307 491.276C517.985 493.344 514.698 494.078 514.021 492.036Z" fill="white"/>
<path d="M516.255 489.76C531.708 465.703 543.005 439.516 549.932 411.787C550.463 409.677 553.693 410.641 553.166 412.745C546.166 440.771 534.724 467.24 519.114 491.547C517.943 493.37 515.083 491.583 516.255 489.76Z" fill="white"/>
<path d="M541.042 452.516C545.771 448.812 550.495 445.094 555.224 441.385C556.917 440.052 559.213 442.516 557.505 443.865C552.776 447.573 548.052 451.292 543.323 455C541.63 456.333 539.328 453.865 541.042 452.516Z" fill="white"/>
<path d="M545.182 438.104C548.531 435.557 551.88 433 555.229 430.438C556.943 429.146 559.245 431.609 557.515 432.932C554.161 435.479 550.812 438.037 547.463 440.583C545.755 441.891 543.453 439.427 545.182 438.104Z" fill="white"/>
<path d="M528.938 472.036C538.297 470.307 546.922 466.719 554.688 461.182C556.427 459.943 558.734 462.411 556.969 463.667C548.719 469.547 539.656 473.463 529.693 475.318C527.563 475.719 526.797 472.437 528.938 472.036Z" fill="white"/>
<path d="M531.974 460.156C531.729 453.531 531.078 446.943 530.016 440.396C529.667 438.266 532.948 437.49 533.297 439.641C534.406 446.479 535.089 453.333 535.344 460.25C535.427 462.427 532.057 462.318 531.974 460.156Z" fill="white"/>
<path d="M523.552 473.641C523.182 467.182 522.813 460.729 522.438 454.266C522.318 452.104 525.688 452.224 525.807 454.37C526.182 460.823 526.552 467.276 526.922 473.729C527.047 475.906 523.677 475.786 523.552 473.641Z" fill="white"/>
<path d="M537.693 444.984C538.156 440.943 537.672 437.026 536.094 433.266C535.26 431.276 538.234 429.693 539.078 431.693C540.88 435.974 541.594 440.463 541.063 445.094C540.818 447.224 537.448 447.146 537.693 444.984Z" fill="white"/>
<path d="M75.0833 296.974C86.5937 302.063 97.8749 307.573 108.953 313.531C110.865 314.557 112.505 311.609 110.594 310.583C99.5104 304.625 88.2291 299.12 76.7239 294.036C74.7499 293.156 73.0989 296.104 75.0833 296.974Z" fill="white"/>
<path d="M89.4635 335.438C94.5729 335.516 99.5989 334.797 104.49 333.333C106.562 332.703 105.646 329.453 103.562 330.094C98.9374 331.479 94.2656 332.13 89.4322 332.063C87.2604 332.037 87.2968 335.412 89.4635 335.438Z" fill="white"/>
<path d="M86.2083 362.156C93.6667 358.214 101.563 355.49 109.849 353.943C111.979 353.547 111.042 350.318 108.922 350.703C100.333 352.307 92.1719 355.198 84.4531 359.276C82.5365 360.292 84.2917 363.172 86.2083 362.156Z" fill="white"/>
<path d="M610.089 296.974C598.583 302.063 587.302 307.573 576.219 313.531C574.307 314.557 572.667 311.609 574.583 310.583C585.661 304.625 596.943 299.12 608.453 294.036C610.422 293.156 612.078 296.104 610.089 296.974Z" fill="white"/>
<path d="M595.708 335.438C590.604 335.516 585.573 334.797 580.687 333.333C578.615 332.703 579.531 329.453 581.615 330.094C586.24 331.479 590.911 332.13 595.74 332.063C597.917 332.037 597.875 335.412 595.708 335.438Z" fill="white"/>
<path d="M598.969 362.156C591.511 358.214 583.615 355.49 575.328 353.943C573.193 353.547 574.136 350.318 576.25 350.703C584.839 352.307 593 355.198 600.724 359.276C602.641 360.292 600.886 363.172 598.969 362.156Z" fill="white"/>
<path d="M192.609 113.464C206.708 126.891 220.807 140.307 234.906 153.729C236.474 155.224 238.76 152.745 237.187 151.25C223.088 137.823 208.989 124.411 194.891 110.984C193.323 109.49 191.036 111.974 192.609 113.464Z" fill="white"/>
<path d="M212.787 151.411C217.625 156.693 222.755 161.677 228.172 166.359C229.807 167.771 232.099 165.307 230.453 163.88C225.037 159.182 219.906 154.213 215.068 148.932C213.604 147.333 211.323 149.812 212.787 151.411Z" fill="white"/>
<path d="M192.609 551.609C206.708 538.182 220.807 524.76 234.906 511.333C236.474 509.838 238.76 512.318 237.187 513.812C223.088 527.239 208.989 540.667 194.891 554.088C193.323 555.583 191.036 553.104 192.609 551.609Z" fill="white"/>
<path d="M212.787 513.667C217.625 508.385 222.755 503.396 228.172 498.703C229.807 497.292 232.099 499.771 230.453 501.198C225.037 505.88 219.906 510.865 215.068 516.146C213.604 517.745 211.323 515.25 212.787 513.667Z" fill="white"/>
<path d="M481.703 113.464C467.604 126.891 453.505 140.307 439.406 153.729C437.839 155.224 435.552 152.745 437.125 151.25C451.224 137.823 465.323 124.411 479.422 110.984C480.99 109.49 483.276 111.974 481.703 113.464Z" fill="white"/>
<path d="M461.526 151.411C456.687 156.693 451.557 161.677 446.14 166.359C444.505 167.771 442.213 165.307 443.859 163.88C449.276 159.182 454.406 154.213 459.245 148.932C460.708 147.333 462.989 149.812 461.526 151.411Z" fill="white"/>
<path d="M474.292 551.609C460.193 538.182 446.094 524.76 431.995 511.333C430.427 509.838 428.141 512.318 429.714 513.812C443.812 527.239 457.911 540.667 472.01 554.088C473.583 555.583 475.87 553.104 474.292 551.609Z" fill="white"/>
<path d="M454.12 513.667C449.276 508.385 444.151 503.396 438.729 498.703C437.094 497.292 434.807 499.771 436.453 501.198C441.87 505.88 446.995 510.865 451.839 516.146C453.302 517.745 455.578 515.25 454.12 513.667Z" fill="white"/>
<g filter="url(#filter0_d_22_577)">
<path d="M267.328 316.943V329.438C267.328 344.823 266.927 359.641 266.115 373.865C265.537 380 264.609 385.026 263.339 388.958C261.953 393.01 259.406 395.849 255.703 397.464L256.573 397.12C254.375 398.505 252.115 399.37 249.802 399.719H249.63C247.313 400.182 245.349 400.411 243.729 400.411C240.839 400.411 238.005 399.891 235.224 398.849C232.448 397.813 230.021 396.25 227.938 394.172C225.505 392.318 223.307 389.49 221.344 385.667C219.724 382.078 218.104 375.026 216.484 364.49L216.656 355.12C216.656 352.344 216.542 345.984 216.313 336.036L216.135 314.344C216.135 298.609 216.656 285.359 217.698 274.599C217.932 273.677 218.917 272.813 220.651 272C222.615 271.307 224.469 270.786 226.203 270.438C226.896 270.786 227.646 270.958 228.458 270.958C230.078 271.427 231.177 272.224 231.755 273.385C232.104 274.078 232.391 275.359 232.625 277.198C232.74 278.599 232.912 279.573 233.146 280.156V285.359C233.719 290.333 234.01 295.651 234.01 301.333L233.839 314.865C233.839 335.573 233.203 351.823 231.927 363.625L231.755 369.01V383.583C231.755 386.599 232.625 389.427 234.359 392.094C235.979 394.745 237.885 396.078 240.083 396.078C242.167 396.078 244.135 394.693 245.984 391.917C246.682 390.984 247.313 389.599 247.896 387.745C248.359 386.479 248.766 384.849 249.109 382.891L250.151 376.464C250.266 374.505 250.323 369.932 250.323 362.76L250.151 338.292L249.802 313.307C249.802 297.917 250.323 285.01 251.365 274.599C251.365 273.797 252.349 272.917 254.318 272C256.167 271.307 258.021 270.786 259.87 270.438C260.563 270.786 261.37 270.958 262.297 270.958C263.917 271.531 265.078 272.573 265.771 274.078C266.578 275.583 266.984 277.146 266.984 278.771L266.813 280.156L267.156 291.438C267.156 292.703 267.271 293.516 267.505 293.865C267.156 298.026 266.984 302.13 266.984 306.182L267.156 311.557C267.156 313.182 267.188 314.427 267.245 315.292C267.302 316.156 267.328 316.719 267.328 316.943Z" fill="white"/>
</g>
<g filter="url(#filter1_d_22_577)">
<path d="M326.875 271.307C326.875 271.88 326.646 272.464 326.182 273.036C324.797 274.427 322.943 275.292 320.63 275.641C318.661 276.104 315.828 276.333 312.125 276.333H308.307L304.838 276.505C303.682 276.745 303.042 277.49 302.927 278.771C302.463 282.583 302.172 289.24 302.062 298.719L300.844 318.156C300.5 321.276 300.323 323.599 300.323 325.104V325.625C300.323 326.094 300.437 326.37 300.672 326.49C300.906 326.609 301.365 326.667 302.062 326.667L306.052 326.318C308.135 325.849 310.677 325.625 313.687 325.625C318.661 325.625 321.958 326.958 323.578 329.609C323.115 329.849 322.562 330.13 321.932 330.479C321.297 330.823 320.687 331.063 320.109 331.172C319.182 331.412 317.792 331.641 315.943 331.865L312.818 332.214L306.922 332.729C306.338 332.729 304.375 332.974 301.021 333.427C300.786 333.427 300.557 333.547 300.323 333.771C300.094 334.24 299.979 334.583 299.979 334.823C299.63 341.88 299.458 347.37 299.458 351.307C299.458 354.198 299.63 359.063 299.979 365.88V377.333C299.63 379.531 299.458 381.094 299.458 382.026C299.458 388.156 299.516 392.146 299.63 394L300.323 394.693C300.557 394.813 300.844 394.865 301.193 394.865H308.828C311.953 394.984 315.651 395.505 319.932 396.427C323.172 397.12 324.797 398.156 324.797 399.547C324.797 400.479 324.448 401.172 323.755 401.641C322.943 402.557 321.38 403.026 319.068 403.026C318.141 403.026 316.635 402.906 314.552 402.677C313.167 402.677 311.891 402.557 310.74 402.333L303.099 402.156L295.463 402.333C292.573 402.557 289.448 402.037 286.094 400.771C283.318 399.49 281.755 397.531 281.411 394.865C281.87 393.703 282.104 393.063 282.104 392.958C282.797 384.974 283.146 374.385 283.146 361.198L282.974 337.427L282.625 312.958C282.625 296.76 283.203 283.865 284.359 274.25C284.359 273.677 284.766 273.13 285.573 272.599C286.38 272.094 287.484 271.651 288.875 271.307C291.76 270.266 293.963 269.797 295.463 269.917C298.588 270.385 302 270.609 305.703 270.609C306.052 270.609 307.151 270.49 309 270.266L312.302 269.745H317.156L321.323 269.396C323.406 269.396 325.026 269.625 326.182 270.094C326.646 270.438 326.875 270.839 326.875 271.307Z" fill="white"/>
</g>
<g filter="url(#filter2_d_22_577)">
<path d="M402.906 267.839L402.734 269.052L402.557 269.917L401.864 281.719L402.042 285.359C402.042 286.052 402.062 286.573 402.125 286.917C402.182 287.266 402.213 287.505 402.213 287.609L401.864 299.932C401.63 306.063 401.401 310.172 401.172 312.25L400.823 319.198V319.547C400.13 320.583 399.781 322.036 399.781 323.891V328.224C399.781 329.385 399.953 330.479 400.302 331.516C400.187 335.453 400.13 339.906 400.13 344.88L400.302 355.641V370.917L400.13 375.078V378.37L399.953 380.292L400.302 386.703V386.88C399.375 388.505 398.854 389.771 398.739 390.693C397.812 391.505 397.182 392.318 396.833 393.13L395.792 394.344L395.099 394.516C394.515 395.094 393.88 395.385 393.187 395.385C391.682 395.385 390.354 395.266 389.198 395.036C388.042 394.344 387.052 393.531 386.245 392.609C385.088 390.865 384.453 389.891 384.338 389.651V388.958C381.328 383.063 378.552 376.583 376.005 369.531C373.807 363.276 370.974 354.839 367.505 344.182C367.385 343.729 367.073 342.693 366.552 341.063C366.031 339.453 365.187 336.958 364.036 333.599C363.687 332.333 362.297 328.865 359.87 323.182L356.573 314.344L356.396 319.198V319.547C355.703 320.583 355.354 322.036 355.354 323.891V328.224C355.354 329.385 355.531 330.479 355.875 331.516L355.703 344.88L355.875 355.641L356.052 366.224L355.875 370.917C355.76 371.49 355.703 372.88 355.703 375.078C355.703 381.214 355.76 385.094 355.875 386.703C355.875 386.823 355.932 386.88 356.052 386.88C355.818 387 355.469 387.573 355.01 388.609C355.01 391.052 354.719 393.01 354.14 394.516C353.677 395.906 352.234 396.599 349.802 396.599L348.068 396.771C347.026 396.771 345.755 396.49 344.25 395.906C343.208 395.214 342.573 394.292 342.338 393.13C340.953 391.849 340.083 390.693 339.739 389.651V388.094L339.042 387.052C339.042 385.557 339.099 384.573 339.219 384.104V383.583C339.911 374.557 340.26 364.266 340.26 352.693L340.083 328.224C339.854 320.823 339.739 312.49 339.739 303.24C339.739 287.385 340.26 274.943 341.302 265.917C341.302 264.771 342.687 263.786 345.463 262.974C348.245 261.932 350.208 261.583 351.364 261.932L356.224 262.276C356.224 262.516 356.338 262.745 356.573 262.974C356.573 263.214 356.687 263.385 356.917 263.49L357.094 264.01C357.323 264.25 357.437 264.427 357.437 264.531L357.958 266.266C359.229 268.932 360.39 272.745 361.432 277.719C361.89 279.813 362.385 282.12 362.906 284.667C363.427 287.214 363.974 289.932 364.552 292.823L366.463 303.063C367.385 308.505 368.547 314.573 369.932 321.276C371.088 326.719 372.073 330.719 372.885 333.25C373.807 335.573 374.443 337.307 374.792 338.464C376.875 344.01 378.495 348.12 379.651 350.786C381.042 354.839 382.484 358.703 383.989 362.411C383.875 361.599 383.818 359.292 383.818 355.464V348.703C383.818 345.583 383.76 342.797 383.646 340.37C383.526 338.172 383.469 335.516 383.469 332.385V302.547L383.125 295.771C383.125 288.719 383.646 284.266 384.687 282.411C384.797 279.396 385.146 273.906 385.724 265.917C385.953 264.771 387.344 263.786 389.89 262.974C392.667 261.932 394.635 261.583 395.792 261.932L400.651 262.276L400.995 262.974C401.229 263.214 401.344 263.385 401.344 263.49L401.864 264.531L402.557 266.266L402.734 267.318V268.182" fill="white"/>
</g>
<g filter="url(#filter3_d_22_577)">
<path d="M472.167 278.078C472.167 279 471.531 279.464 470.26 279.464H469.74C469.047 279.344 467.885 278.307 466.266 276.333C463.719 273.557 461.87 271.943 460.714 271.479C460.021 271.13 459.328 270.958 458.63 270.958C457.938 270.958 456.781 271.182 455.161 271.651C453.656 272.24 452.786 272.516 452.557 272.516C448.276 274.146 445.151 276.052 443.188 278.24C441.104 280.557 439.714 282.88 439.021 285.182C438.094 290.156 437.458 293.745 437.115 295.943L436.422 300.104C435.49 305.667 434.917 309.25 434.682 310.865C433.641 318.276 433.063 324.172 432.948 328.573C432.599 334.583 432.427 341.932 432.427 350.609C432.427 367.036 433.641 378.906 436.073 386.182C436.88 388.156 438.156 389.719 439.891 390.88C441.74 392.026 443.708 392.609 445.792 392.609C448.911 392.609 451.693 391.573 454.12 389.49C455.51 387.865 457.01 386.307 458.63 384.797C461.411 381.906 463.896 380.464 466.094 380.464C467.943 380.464 468.87 381.505 468.87 383.583C468.87 384.625 468.526 385.49 467.828 386.182C466.323 387.693 464.703 389.078 462.974 390.359C460.656 392.547 457.01 395.094 452.036 397.984C447.755 400.411 444.286 401.641 441.625 401.641C438.385 401.865 435.49 400.943 432.948 398.849C430.286 397.12 427.625 394.641 424.969 391.396C423.807 390.01 422.995 388.786 422.536 387.745C421.839 386.01 421.323 384.505 420.974 383.24C417.271 371.438 415.422 356.974 415.422 339.849C415.422 323.771 416.984 309.25 420.104 296.292L423.578 283.974C424.62 281.078 426.005 278.307 427.745 275.641C429.823 272.292 433.469 269.797 438.677 268.182C442.839 267.026 447.177 266.438 451.693 266.438C454.005 266.438 456.318 266.625 458.63 266.974C459.786 267.078 462.042 268.359 465.401 270.786C468.755 273.104 470.891 275.062 471.823 276.677" fill="white"/>
</g>
<g filter="url(#filter4_d_22_577)">
<path d="M203.245 278.078C203.245 279 202.604 279.464 201.333 279.464H200.813C200.12 279.344 198.964 278.307 197.344 276.333C194.797 273.557 192.943 271.943 191.787 271.479C191.094 271.13 190.401 270.958 189.708 270.958C189.016 270.958 187.854 271.182 186.234 271.651C184.729 272.24 183.865 272.516 183.635 272.516C179.354 274.146 176.224 276.052 174.26 278.24C172.182 280.557 170.792 282.88 170.099 285.182C169.167 290.156 168.537 293.745 168.188 295.943L167.495 300.104C166.568 305.667 165.99 309.25 165.76 310.865C164.719 318.276 164.135 324.172 164.026 328.573C163.677 334.583 163.5 341.932 163.5 350.609C163.5 367.036 164.719 378.906 167.146 386.182C167.953 388.156 169.229 389.719 170.964 390.88C172.813 392.026 174.781 392.609 176.865 392.609C179.99 392.609 182.766 391.573 185.193 389.49C186.583 387.865 188.083 386.307 189.708 384.797C192.484 381.906 194.969 380.464 197.167 380.464C199.021 380.464 199.948 381.505 199.948 383.583C199.948 384.625 199.599 385.49 198.906 386.182C197.401 387.693 195.781 389.078 194.047 390.359C191.729 392.547 188.083 395.094 183.115 397.984C178.828 400.411 175.359 401.641 172.698 401.641C169.458 401.865 166.568 400.943 164.026 398.849C161.359 397.12 158.698 394.641 156.042 391.396C154.88 390.01 154.073 388.786 153.609 387.745C152.917 386.01 152.396 384.505 152.047 383.24C148.344 371.438 146.495 356.974 146.495 339.849C146.495 323.771 148.057 309.25 151.182 296.292L154.651 283.974C155.693 281.078 157.083 278.307 158.818 275.641C160.896 272.292 164.542 269.797 169.75 268.182C173.917 267.026 178.255 266.438 182.766 266.438C185.078 266.438 187.391 266.625 189.708 266.974C190.859 267.078 193.12 268.359 196.474 270.786C199.828 273.104 201.969 275.062 202.896 276.677" fill="white"/>
</g>
<g filter="url(#filter5_d_22_577)">
<path d="M523.682 331.344C523.682 327.062 523.651 323.823 523.594 321.625C523.536 319.437 523.505 317.88 523.505 316.943C523.39 315.786 523.333 313.24 523.333 309.307C523.333 305.958 523.276 303.411 523.156 301.677C523.042 299.13 522.698 296.812 522.12 294.729C520.614 288.25 517.896 282.182 513.963 276.505C512.573 274.547 511.187 273.557 509.797 273.557C507.828 273.557 505.922 275.359 504.073 278.943C502.333 282.531 501.12 285.943 500.427 289.182C498.687 299.823 497.76 317.062 497.651 340.891L497.474 349.396V356.333C497.474 369.641 498.281 381.505 499.906 391.917C499.906 392.609 499.963 393.214 500.078 393.729C500.193 394.25 500.312 394.693 500.427 395.036C500.776 395.958 501.229 396.719 501.812 397.292C502.505 397.984 503.318 398.333 504.245 398.333C506.672 398.333 509.213 396.318 511.88 392.266C514.422 388.437 516.276 384.917 517.432 381.677C520.094 374.849 522 365.479 523.156 353.557C523.505 348.703 523.682 341.307 523.682 331.344ZM534.786 338.292C534.786 348.823 534.208 358.359 533.052 366.917C531.776 376.062 529.87 383.641 527.323 389.651C525.239 394.292 521.943 398.052 517.432 400.943C513.036 403.943 508.406 405.453 503.547 405.453C498.687 405.453 494.526 403.891 491.057 400.771V400.943H489.489C485.208 395.385 482.031 388.333 479.948 379.771L480.297 362.24L479.948 333.078C480.297 332.036 480.583 330.651 480.818 328.917C480.818 321.172 480.875 316.13 480.989 313.823L480.818 312.609C480.927 312.49 480.989 312.198 480.989 311.745C482.609 282.359 490.823 267.667 505.63 267.667C511.068 267.667 515.87 269.224 520.036 272.344C523.505 275.01 526.109 278.651 527.849 283.276C530.042 289.292 531.719 296.932 532.875 306.182C533.338 310.812 533.63 313.703 533.745 314.865C534.437 321.453 534.786 329.266 534.786 338.292Z" fill="white"/>
</g>
<path d="M115.359 218.37C115.307 218.427 115.224 218.479 115.219 218.531C115.219 218.599 115.297 218.667 115.339 218.729C115.38 218.667 115.453 218.609 115.464 218.547C115.469 218.49 115.396 218.427 115.359 218.37ZM120.542 247.453C120.557 247.49 120.563 247.557 120.589 247.573C120.74 247.599 120.896 247.625 121.047 247.641C121.052 247.599 121.073 247.516 121.057 247.516C120.917 247.463 120.766 247.396 120.615 247.359C120.599 247.359 120.563 247.427 120.542 247.453ZM112.651 231.359C112.719 231.266 112.766 231.198 112.818 231.146C112.719 231.094 112.615 231 112.521 231.01C112.448 231.01 112.396 231.156 112.333 231.24C112.443 231.276 112.552 231.318 112.651 231.359ZM132.146 250.797C132.115 250.771 132.083 250.729 132.052 250.719C131.891 250.703 131.729 250.693 131.573 250.693C131.557 250.693 131.531 250.797 131.537 250.797C131.677 250.865 131.823 250.932 131.974 250.958C132.021 250.974 132.089 250.865 132.146 250.797ZM107.224 228.531C107.396 228.583 107.505 228.667 107.604 228.641C107.797 228.609 107.917 228.344 107.797 228.266C107.708 228.213 107.557 228.198 107.453 228.224C107.375 228.266 107.328 228.385 107.224 228.531ZM134.609 187.823C134.531 187.838 134.422 187.812 134.38 187.849C134.245 187.984 134.141 188.146 134.026 188.292C134.099 188.333 134.214 188.411 134.24 188.385C134.385 188.25 134.516 188.104 134.646 187.943C134.662 187.932 134.625 187.865 134.609 187.823ZM106.307 225.573C106.146 225.13 106.042 224.849 105.922 224.531C105.662 225.318 105.662 225.318 106.307 225.573ZM109.537 210.182C109.151 210.531 109.01 210.984 108.87 211.641C109.24 211.359 109.5 211.182 109.724 210.984C110.037 210.677 109.896 210.427 109.537 210.182ZM115.125 233.463C114.662 233.719 114.344 234.026 114.094 234.573C114.641 234.531 115.037 234.453 115.38 234.146C115.287 233.906 115.219 233.703 115.125 233.463ZM114.412 224.531C113.839 224.974 113.839 224.974 113.594 225.531C113.87 225.49 114.13 225.453 114.38 225.411C114.5 225.104 114.693 224.823 114.412 224.531ZM109.109 234.344C108.672 234.182 108.344 233.917 107.958 234.24C108.115 234.479 108.26 234.719 108.464 235.036C108.734 234.745 108.922 234.547 109.109 234.344ZM140.208 179.531C140.875 179.599 140.875 179.599 142.375 178.693C141.589 178.932 140.938 179.146 140.208 179.531ZM114.662 243C114.771 243.156 114.854 243.307 114.969 243.411C115.255 243.677 115.552 243.917 115.912 244.224C116.078 243.974 116.193 243.797 116.302 243.625C115.224 242.838 115.224 242.838 114.662 243ZM107.052 216.505C107.38 216.479 107.557 216.516 107.635 216.453C108.068 216.062 108.479 215.651 108.885 215.24C108.943 215.172 108.927 215.036 108.953 214.88C108.396 214.984 107.917 215.078 107.401 215.172C107.292 215.583 107.193 215.974 107.052 216.505ZM127.234 197.104C124.859 198.24 123.969 198.849 123.094 200C123.5 199.76 123.76 199.583 124.026 199.437C124.615 199.104 125.172 198.667 125.807 198.463C126.49 198.25 126.865 197.849 127.234 197.104ZM111.906 214.974C113.667 214.25 114.516 213.599 114.964 212.729C113.495 212.88 112.729 213.958 111.906 214.974ZM112.052 205.307C111.578 206.13 111.12 206.906 110.693 207.703C110.604 207.865 110.365 208.052 110.646 208.276C111.417 207.49 112.182 206.729 112.943 205.958C113.005 205.891 113.073 205.823 113.109 205.745C113.135 205.677 113.12 205.599 113.125 205.479C112.813 205.427 112.505 205.385 112.052 205.307ZM120.031 207.745C118.849 208.427 117.839 209.182 116.906 210.318C117.693 210.13 118.292 209.984 118.948 209.838C119.297 209.156 119.662 208.453 120.031 207.745ZM112.839 237.609C111.76 237.583 111.115 237.703 110.287 238.062C110.766 238.891 111.328 239.625 112.042 240.292C112.083 239.812 112.042 239.344 112.167 238.943C112.313 238.479 112.599 238.062 112.839 237.609ZM113.912 202.729C114.318 202.49 114.589 202.359 114.828 202.182C117.167 200.547 119.651 199.146 122.141 197.745C123.333 197.078 124.406 196.25 125.396 195.318C125.526 195.198 125.589 195.01 125.719 194.786C124.88 194.891 124.38 195.385 123.818 195.76C122.12 196.88 120.458 198.052 118.724 199.12C117.734 199.729 116.76 200.427 115.568 200.651C115.406 200.693 115.214 200.786 115.109 200.906C114.693 201.427 114.229 201.932 113.912 202.729ZM170.526 181.318C170.385 181.062 170.287 180.812 170.115 180.609C168.99 179.37 167.76 178.24 166.359 177.292C165.526 176.719 164.609 176.333 163.62 176.12C160.422 175.453 157.234 175.479 154.052 176.276C152.375 176.703 150.792 177.37 149.214 178.078C146.25 179.396 143.568 181.146 141.198 183.37C139.505 184.958 137.979 186.677 136.537 188.49C133.859 191.865 131.172 195.24 128.495 198.609C127.875 199.396 127.266 200.182 126.677 200.984C123.245 205.651 120.484 210.693 118.537 216.156C117.089 220.24 116.641 224.453 116.682 228.729C116.708 231.292 117.537 233.625 118.833 235.812C120.521 238.641 122.729 241.026 125.026 243.359C128.151 246.531 131.964 248.396 136.214 249.479C137.635 249.849 139.078 249.917 140.526 249.641C143.823 249 146.859 247.745 149.573 245.76C151.813 244.104 153.771 242.156 155.537 240.01C160.495 234 164.224 227.292 166.667 219.891C168.104 215.547 169.203 211.094 170.182 206.609C170.885 203.411 171.245 200.172 171.172 196.891C171.094 193.547 170.979 190.198 170.828 186.849C170.755 185.146 170.75 183.411 169.979 181.88C170.083 181.729 170.13 181.651 170.193 181.599C170.287 181.505 170.385 181.437 170.526 181.318ZM113.172 210.531C113.25 210.516 113.333 210.505 113.417 210.49C113.333 210.505 113.255 210.505 113.172 210.516C112.443 211.146 111.531 211.547 110.865 212.276C110.974 212.37 111.01 212.411 111.037 212.411C112.089 212.224 112.719 211.516 113.224 210.651C113.24 210.625 113.188 210.573 113.172 210.531ZM129.599 250.838C129.25 250.25 128.625 250.12 128.047 249.932C127.625 249.786 127.443 249.823 126.708 250.01C127.406 250.213 127.953 250.37 128.5 250.531C128.875 250.641 129.25 250.76 129.62 250.865C129.635 250.823 129.635 250.771 129.662 250.745C129.682 250.729 129.729 250.745 129.766 250.76C129.714 250.786 129.656 250.812 129.599 250.838ZM111.74 218.307C111.849 218.292 111.953 218.276 111.766 218.307C111.953 218.25 111.854 218.276 111.755 218.307C111.25 218.745 110.734 219.172 110.24 219.625C110.182 219.677 110.224 219.838 110.219 219.984C111.177 219.37 111.448 219.13 111.776 218.547C111.807 218.49 111.745 218.385 111.74 218.307ZM172.021 183.104C172.938 185.891 173.313 188.812 173.537 191.76C173.693 193.745 173.875 195.729 173.995 197.719C174.135 200.13 173.969 202.531 173.531 204.906C172.443 210.797 170.995 216.609 168.953 222.25C166.151 229.984 161.859 236.838 156.417 242.974C153.891 245.812 150.917 248.104 147.484 249.771C145.307 250.823 143.026 251.573 140.656 252.036C139.995 252.172 139.307 252.182 138.63 252.24C138 252.307 137.365 252.344 136.74 252.411C133.01 252.812 129.313 252.797 125.682 251.719C125.203 251.573 124.724 251.437 124.245 251.307C119.839 250.062 115.958 247.891 112.589 244.797C109.594 242.036 107.094 238.906 105.109 235.344C103.62 232.667 102.932 229.786 102.719 226.771C102.51 223.812 102.823 220.891 103.531 218C104.823 212.745 107.094 207.917 110.078 203.427C113.047 198.943 116.479 194.849 120.406 191.172C123.651 188.13 126.969 185.182 130.557 182.557C134.141 179.932 138.042 177.932 142.25 176.547C144.276 175.88 146.328 175.307 148.391 174.76C150.224 174.266 152.073 173.786 153.943 173.437C155.635 173.13 157.359 172.974 159.073 172.838C160.75 172.693 162.432 172.76 164.083 173.104C167.359 173.786 169.859 175.609 171.781 178.307C172.443 179.224 172.641 180.292 172.76 181.385C172.828 181.958 172.693 182.182 172.021 183.104Z" fill="white"/>
<path d="M144.245 206.76C143.312 206.88 142.484 207.078 141.703 207.464C138.021 209.266 135.187 212 133.021 215.438C132.687 215.974 132.443 216.573 132.203 217.156C130.484 221.359 130.76 225.583 132.25 229.771C132.896 231.583 134.016 233.13 135.536 234.359C136.729 235.307 138.062 235.974 139.599 236.104C141.714 236.292 143.755 235.958 145.672 235.01C149.229 233.25 151.698 230.438 153.38 226.891C154.229 225.104 154.656 223.224 154.615 221.24C154.557 218.547 154.052 215.932 153.141 213.396C152.786 212.411 152.302 211.49 151.687 210.641C150.979 209.667 150.12 208.865 148.943 208.516C148.036 208.24 147.12 207.958 146.193 207.771C145.422 207.609 144.677 207.49 144.245 206.76ZM129.443 231.599C128.229 228.198 127.833 225.104 128.276 221.958C128.828 217.984 130.401 214.479 133.203 211.557C135.13 209.557 137.266 207.813 139.708 206.464C140.99 205.76 142.349 205.25 143.818 205.12C145.057 205 146.255 205.104 147.328 205.865C147.609 206.063 147.984 206.156 148.328 206.24C149.208 206.464 150.094 206.651 150.974 206.865C152.01 207.13 152.885 207.677 153.62 208.464C154.646 209.557 155.526 210.771 156.094 212.172C157.354 215.276 157.964 218.516 157.958 221.865C157.953 223.464 157.651 225.026 157.042 226.505C155.974 229.13 154.547 231.557 152.594 233.625C149.526 236.865 145.828 238.917 141.292 239.214C136.823 239.49 133.359 237.703 130.833 234.063C130.214 233.182 129.766 232.172 129.443 231.599Z" fill="white"/>
<path d="M149.333 241.88C149.318 241.984 149.349 242.156 149.281 242.214C148.667 242.745 148.073 243.318 147.406 243.786C145.609 245.01 143.693 246.052 141.661 246.849C139.661 247.641 137.75 247.427 135.943 246.276C135.635 246.094 135.328 245.891 135.052 245.651C133.604 244.438 131.948 243.609 130.188 242.984C128.844 242.505 127.625 241.823 126.609 240.813C126.135 240.344 125.661 239.823 125.328 239.25C124.51 237.839 123.792 236.37 123.005 234.943C122.396 233.839 121.771 232.729 121.104 231.651C120.141 230.078 119.828 228.427 120.026 226.573C120.193 224.958 120.109 223.318 120.135 221.693C120.151 220.974 120.135 220.24 120.161 219.516C120.219 217.984 120.688 216.583 121.5 215.292C122.901 213.063 124.255 210.813 125.641 208.573C126.839 206.641 128.12 204.771 129.672 203.104C130.818 201.865 131.76 200.49 132.563 199C132.76 198.651 132.969 198.292 133.135 197.917C134.229 195.505 135.698 193.333 137.281 191.224C138.078 190.172 138.927 189.172 139.922 188.307C142.458 186.12 145.005 183.932 147.578 181.771C148.339 181.146 149.177 180.583 150.01 180.036C151.641 178.974 153.443 178.427 155.401 178.396C156.76 178.385 158.12 178.385 159.479 178.396C159.786 178.396 160.115 178.453 160.401 178.557C160.563 178.625 160.661 178.849 160.854 179.078C160.583 179.182 160.427 179.276 160.266 179.292C158.109 179.573 155.953 179.839 153.797 180.104C152.13 180.318 150.656 181.026 149.349 182.026C147.729 183.266 146.182 184.599 144.625 185.906C143.484 186.88 142.375 187.88 141.245 188.865C140.177 189.786 139.219 190.813 138.406 191.958C138.38 192 138.354 192.036 138.323 192.078C136.589 194.182 135.161 196.49 133.901 198.917C132.958 200.729 131.729 202.344 130.276 203.813C128.734 205.359 127.484 207.146 126.323 209C124.948 211.182 123.563 213.359 122.115 215.505C121.089 217.026 120.563 218.651 120.604 220.49C120.641 222.026 120.641 223.573 120.63 225.104C120.63 225.651 120.599 226.198 120.495 226.729C120.156 228.49 120.604 230.063 121.547 231.516C122.406 232.849 123.182 234.24 123.984 235.609C125.052 237.438 126.286 239.182 128.01 240.505C128.703 241.037 129.411 241.505 130.224 241.813C132.203 242.547 134 243.573 135.552 245.026C135.719 245.172 135.906 245.307 136.083 245.438C137.76 246.786 139.609 247.01 141.589 246.276C144.25 245.307 146.724 244.01 148.901 242.172C149.036 242.052 149.208 241.984 149.365 241.891L149.333 241.88Z" fill="white"/>
<path d="M126.062 227.25C125.469 227.224 125.208 226.797 125.005 226.333C124.417 224.943 123.917 223.516 123.828 222.026C123.568 217.583 124.479 213.453 127.359 209.917C128.656 208.333 130.167 206.974 131.927 205.906C132.521 205.547 133.156 205.307 133.854 205.307C134.052 205.307 134.312 205.411 134.448 205.547C134.656 205.771 134.562 206.078 134.385 206.292C134.078 206.677 133.75 207.062 133.401 207.411C132.484 208.359 131.531 209.25 130.63 210.214C128.38 212.583 126.969 215.37 126.51 218.625C126.156 221.094 125.989 223.573 126.411 226.052C126.521 226.667 126.5 226.667 126.062 227.25Z" fill="white"/>
<path d="M157.016 233.12C157 232.958 156.912 232.76 156.979 232.641C157.313 232.052 157.688 231.479 158.047 230.906C159.042 229.333 159.896 227.693 160.604 225.958C161.115 224.703 161.771 223.505 162.417 222.307C162.974 221.266 163.594 220.266 164.198 219.25C164.99 217.906 165.5 216.464 165.802 214.932C166.281 212.531 166.797 210.146 167.255 207.729C167.417 206.891 167.505 206.036 167.542 205.172C167.682 202.052 167.641 198.932 167.417 195.813C167.37 195.172 167.422 194.531 167.469 193.906C167.583 192.464 167.766 191.026 167.828 189.573C167.88 188.396 167.906 187.214 167.755 186.052C167.641 185.214 167.339 184.344 166.901 183.641C165.932 182.052 164.714 180.641 163.261 179.427C163.396 179.156 163.609 179.359 163.781 179.438C163.943 179.516 164.115 179.609 164.229 179.745C165.542 181.24 167.13 182.49 167.995 184.344C168.287 184.974 168.552 185.599 168.583 186.292C168.646 187.771 168.719 189.266 168.766 190.76C168.833 192.797 168.901 194.839 168.943 196.865C169.016 200.318 168.865 203.76 168.042 207.13C167.672 208.625 167.386 210.146 167.073 211.651C166.797 212.984 166.531 214.318 166.271 215.651C165.979 217.13 165.417 218.516 164.636 219.813C163.787 221.198 162.938 222.599 162.115 224.01C161.724 224.667 161.339 225.344 161.057 226.063C160.068 228.625 158.63 230.917 156.974 233.094" fill="white"/>
<path d="M153.182 204.531C153.245 204.786 153.307 204.932 153.297 205.052C153.286 205.266 153.297 205.547 153.167 205.677C152.943 205.917 152.677 205.745 152.448 205.583C150.682 204.307 148.682 203.693 146.526 203.385C144.458 203.094 142.406 202.786 140.313 203.036C140.094 203.063 139.865 203.01 139.641 202.984C139.557 202.984 139.443 202.932 139.406 202.88C139.349 202.76 139.318 202.625 139.328 202.505C139.333 202.438 139.438 202.359 139.516 202.318C139.75 202.182 139.984 202.01 140.24 201.943C142.938 201.333 145.641 200.771 148.427 201.385C149.927 201.703 151.25 202.359 152.323 203.464C152.667 203.823 152.943 204.24 153.182 204.531Z" fill="white"/>
<path d="M132.49 237.037C132.276 237.344 131.958 237.427 131.651 237.318C129.818 236.677 128.37 235.609 127.74 233.667C127.724 233.625 127.703 233.573 127.713 233.531C127.776 233.333 127.786 233.063 127.927 232.943C128.115 232.771 128.354 232.906 128.5 233.104C128.719 233.396 128.917 233.703 129.13 234C129.896 235.026 130.781 235.917 131.948 236.505C132.141 236.599 132.297 236.771 132.458 236.906C132.484 236.932 132.479 237 132.49 237.037Z" fill="white"/>
<path d="M150.896 240.479C150.552 241.146 150.099 241.693 149.333 241.88L149.365 241.891C149.802 241.333 150.24 240.771 150.932 240.505" fill="white"/>
<path d="M153.323 237.359C153.401 237.547 153.537 237.729 153.359 237.943C153.146 238.214 152.958 238.505 152.76 238.786L152.787 238.797C152.589 238.609 152.646 238.437 152.797 238.24C152.99 237.958 153.146 237.651 153.323 237.359Z" fill="white"/>
<path d="M156.974 233.094C156.833 233.292 156.693 233.479 156.375 233.906C156.495 233.276 156.604 233.036 157.01 233.12C157.016 233.12 156.974 233.094 156.974 233.094Z" fill="white"/>
<path d="M154.354 236.146C154.62 236.505 154.167 236.771 154.24 237.104C154.229 237.104 154.245 237.12 154.245 237.12C153.984 236.76 154.323 236.479 154.38 236.146" fill="white"/>
<path d="M155.958 234.479C155.922 234.479 155.885 234.479 155.849 234.49C155.875 234.438 155.896 234.385 155.932 234.344C155.937 234.333 156 234.37 156.036 234.385C156.01 234.411 155.984 234.438 155.958 234.479Z" fill="white"/>
<path d="M155.286 235.292C155.271 235.266 155.234 235.24 155.24 235.224C155.26 235.182 155.297 235.172 155.323 235.146C155.349 235.182 155.37 235.224 155.391 235.266C155.359 235.276 155.323 235.276 155.286 235.292Z" fill="white"/>
<path d="M154.38 236.146C154.448 236.104 154.521 236.062 154.588 236.026C154.62 236.01 154.661 236.01 154.703 236C154.672 236.052 154.656 236.146 154.615 236.156C154.542 236.172 154.453 236.156 154.365 236.146C154.354 236.146 154.38 236.146 154.38 236.146Z" fill="white"/>
<path d="M153.323 237.359C153.63 237.276 153.932 237.198 154.245 237.12C154.245 237.12 154.234 237.104 154.24 237.104C153.938 237.198 153.63 237.276 153.323 237.359Z" fill="white"/>
<path d="M152.76 238.786C152.609 238.932 152.463 239.078 152.302 239.214C152.297 239.214 152.333 239.224 152.333 239.224C152.229 238.839 152.286 238.771 152.781 238.797C152.786 238.797 152.76 238.786 152.76 238.786Z" fill="white"/>
<path d="M151.88 239.651C151.792 239.276 151.859 239.224 152.328 239.224C152.333 239.224 152.297 239.214 152.307 239.214C152.156 239.359 152 239.49 151.844 239.641C151.839 239.641 151.88 239.651 151.88 239.651Z" fill="white"/>
<path d="M151.479 240.12C151.375 239.745 151.422 239.693 151.875 239.651C151.88 239.651 151.839 239.641 151.839 239.641C151.714 239.797 151.583 239.943 151.448 240.094C151.443 240.094 151.479 240.12 151.479 240.12Z" fill="white"/>
<path d="M150.932 240.505C150.922 240.104 151.156 240.052 151.474 240.104C151.479 240.12 151.443 240.094 151.448 240.094C151.266 240.224 151.083 240.359 150.896 240.479" fill="white"/>
<path d="M150.745 221.787C148.26 220.531 146.182 221.078 144.297 222.651C142.088 224.49 141.984 227.703 143.984 229.771C144.5 230.307 145.114 230.557 145.823 230.412C147.901 229.974 149.5 228.917 150.172 226.787C150.526 225.651 150.745 224.49 150.786 223.318C150.807 222.823 150.76 222.333 150.745 221.787ZM150.969 220.026C151.656 220.891 151.776 221.891 151.844 222.891C151.953 224.531 151.698 226.13 151.208 227.703C150.901 228.677 150.323 229.479 149.547 230.146C148.552 230.984 147.391 231.479 146.135 231.745C144.838 232.026 143.719 231.651 142.849 230.609C141.635 229.172 141.021 227.505 141.13 225.609C141.161 225.078 141.292 224.531 141.479 224.026C142.385 221.583 145.771 219.292 148.51 219.583C148.953 219.641 149.396 219.76 149.838 219.839C150.182 219.906 150.531 219.958 150.969 220.026Z" fill="white"/>
<path d="M381.396 74.547C381.261 74.5574 381.109 74.547 381 74.6095C380.662 74.797 380.292 74.9584 380.016 75.2241C376.359 78.6928 371.938 80.6407 367.136 81.9063C359.979 83.8126 352.776 85.4636 345.375 86.1303C338.641 86.7449 331.891 86.6772 325.162 86.2657C318.156 85.8386 311.307 84.2918 304.505 82.5834C298.813 81.1563 293.339 79.2657 289.042 75.0001C288.636 74.5834 288.162 74.3699 287.74 74.9428C287.375 75.4532 287.599 75.9584 287.865 76.4272C288.417 77.3855 289.37 77.8907 290.261 78.4376C292.521 79.823 294.932 80.9063 297.438 81.7866C308.781 85.7449 320.464 87.6511 332.49 87.3595C333.547 87.3334 334.604 87.2397 335.656 87.2918C344.583 87.7709 353.354 86.6668 362.026 84.6928C367.052 83.547 371.995 82.0782 376.641 79.7709C378.182 79.0001 379.708 78.198 380.979 77.0105C381.745 76.3074 381.938 75.4793 381.396 74.547ZM380.037 108.146C384.016 107.479 387.188 106.276 390.016 104.292C391.526 103.224 392.88 101.943 393.787 100.276C394.932 98.172 394.599 96.1459 392.839 94.5574C392.042 93.8386 391.13 93.2918 390.078 93.0626C388.109 92.6511 386.13 92.7188 384.188 93.2397C383.412 93.4376 382.761 93.8647 382.651 94.8126C382.156 99.1303 381.229 103.37 380.037 108.146ZM383.453 91.2136C385.401 91.2136 387.115 91.1043 388.813 91.2397C391.599 91.4376 393.901 92.5991 395.344 95.1043C396.693 97.4636 396.203 99.6928 394.776 101.813C394.375 102.412 394.151 102.917 394.875 103.453C395.042 103.573 395.182 103.917 395.136 104.104C394.797 105.396 393.047 106.797 391.912 106.292C389.969 105.427 389.099 107.24 387.677 107.583C387.604 107.599 387.526 108.13 387.636 108.292C388.323 109.266 387.755 109.719 386.922 110.011C384.807 110.761 382.677 111.464 380.557 112.214C379.807 112.464 379.021 112.667 378.344 113.052C377.912 113.307 377.745 113.906 377.984 114.438C378.188 114.906 378.62 114.823 378.979 114.693C382.479 113.505 386.011 112.396 389.464 111.078C392.318 109.984 394.891 108.344 397.214 106.344C399.578 104.307 401.255 101.823 402.016 98.7605C403.109 94.3855 400.948 89.4272 396.979 87.2501C394.745 86.0366 392.313 85.4272 389.813 85.0938C387.912 84.823 386.141 85.3438 384.448 86.1824C383.703 86.547 383.229 87.573 383.537 88.1459C383.969 88.9584 384.656 88.5053 385.266 88.4532C386.182 88.3595 387.104 88.2501 388.026 88.1824C388.422 88.1563 388.828 88.1303 389.208 88.2241C389.422 88.2761 389.682 88.5157 389.745 88.7188C389.865 89.1199 389.698 89.5574 389.271 89.6251C388.229 89.7866 387.172 89.823 386.125 89.9428C385.234 90.0522 384.302 90.0938 383.453 91.2136ZM364.656 80.547C350.969 76.2397 316.703 76.2918 304.672 80.6511C321.083 86.5053 350.151 86.1459 364.656 80.547ZM305.594 136.932C303.886 137.307 302.354 137.677 300.813 137.984C299.917 138.172 299.005 138.292 298.089 138.37C297.948 138.386 297.662 138.078 297.641 137.891C297.615 137.677 297.761 137.344 297.938 137.25C298.386 136.984 298.875 136.771 299.38 136.641C300.651 136.292 301.938 135.984 303.224 135.677C303.578 135.599 303.719 135.427 303.573 135.198C303.443 134.984 303.287 134.703 303.078 134.625C302.719 134.505 302.302 134.438 301.932 134.479C299.833 134.745 297.714 134.943 295.651 135.386C294.109 135.703 292.594 136.24 291.151 136.865C289.49 137.609 289.422 138.761 290.938 139.823C291.906 140.49 292.953 141.104 294.042 141.547C296 142.333 297.99 143.063 300.021 143.641C307.162 145.651 314.479 146.823 321.854 147.531C327.375 148.063 332.912 148.745 338.484 148.292C341.12 148.063 343.761 147.891 346.396 147.641C354.302 146.88 362.13 145.641 369.797 143.516C372.469 142.787 375.12 141.906 377.495 140.427C378.359 139.891 379.542 139.427 379.313 138.104C379.136 137.078 378.094 136.839 377.266 136.453C376.484 136.078 375.875 135.974 375.188 136.729C374.464 137.531 373.448 137.078 372.552 136.974C369.516 136.609 366.49 136.557 363.479 137.276C362.662 137.479 361.99 137.761 361.724 138.641C361.068 140.865 359.276 142 357.422 143.063C355.573 144.156 353.552 144.839 351.484 145.214C344.177 146.531 336.807 147.37 329.375 146.823C323.969 146.438 318.594 145.693 313.479 143.703C310.099 142.386 306.896 140.865 305.594 136.932ZM323.005 64.198C315.406 64.4272 309 65.2918 302.667 66.7293C299.182 67.5157 295.771 68.547 292.568 70.1563C291.521 70.6928 290.401 71.172 289.682 72.1824C289.563 72.3438 289.568 72.6772 289.651 72.8803C289.771 73.198 290.031 73.2136 290.297 73.0366C292.953 71.2657 295.776 69.7866 298.948 69.2918C300.547 69.0366 302.109 67.6251 303.792 68.823C304.339 69.2241 303.125 69.8647 299.172 70.8491C296.854 71.4272 294.62 72.2136 292.599 73.5313C291.375 74.3178 291.375 74.9324 292.615 75.8907C294.203 77.1043 295.995 77.9324 297.807 78.7605C299.531 79.547 301.182 80.0366 302.995 78.9741C303.531 78.6511 304.281 78.7032 304.922 78.5574C310.083 77.3178 315.354 76.8491 320.609 76.3699C325.609 75.9324 330.604 75.2136 335.641 75.4532C339.599 75.6407 343.563 75.8491 347.5 76.2761C354.313 77.0105 361.208 77.2657 367.771 79.573C368.302 79.7605 368.776 79.7188 369.297 79.547C372.083 78.6511 374.714 77.4532 377.016 75.6095C377.87 74.9324 377.859 74.3178 377.021 73.7449C374.807 72.2241 372.339 71.3334 369.734 70.7709C368.313 70.4793 366.88 70.2397 365.604 69.5157C365.469 69.4376 365.474 69.0522 365.474 68.823C365.469 68.7293 365.63 68.6251 365.734 68.5574C366.224 68.2397 366.729 68.3595 367.25 68.4897C371.37 69.4532 375.484 70.4116 378.969 73.0366C379.099 73.1303 379.464 72.9845 379.693 72.9063C379.964 72.797 379.995 72.547 379.761 72.2761C379.5 72.0001 379.219 71.7032 378.906 71.4793C376.839 70.0105 374.516 69.0626 372.12 68.2918C362.979 65.3334 353.557 64.198 343.995 64.2136C342.042 64.2136 340.073 64.5157 338.094 64.3959C332.698 64.0626 327.297 64.6928 323.005 64.198ZM297.552 127.464C296.964 126.943 296.427 127.063 295.906 127.052C292.969 126.943 290.109 127.583 287.245 128.026C283.328 128.641 279.474 129.599 275.792 131.12C273.953 131.88 272.177 132.761 270.636 134.037C267.391 136.729 267.073 139.761 269.708 143C271.063 144.651 272.75 145.917 274.542 147.063C278.125 149.359 281.995 151.052 285.99 152.464C299.828 157.333 314.162 159.547 328.745 160.344C338.557 160.88 348.318 160.078 358.011 158.609C366.646 157.307 375.156 155.412 383.396 152.438C387.136 151.094 390.766 149.516 394.167 147.438C396.214 146.198 398.136 144.797 399.651 142.917C402.219 139.745 401.99 136.943 398.927 134.25C397.214 132.761 395.188 131.787 393.078 130.974C387.24 128.703 381.13 127.719 374.938 127.172C373.948 127.094 372.891 126.761 371.818 127.427C372.281 127.547 372.656 127.729 373.026 127.719C377.302 127.599 381.386 128.729 385.516 129.583C386.287 129.745 387.037 130.011 387.781 130.292C388.188 130.438 388.359 130.849 388.208 131.24C388.068 131.583 387.719 131.823 387.271 131.729C385.859 131.396 384.448 131.052 383.031 130.729C379.542 129.943 376.026 129.438 372.432 129.344C370.417 129.292 369.172 130.104 368.38 131.839C368.115 132.412 368.313 132.88 368.938 133C371.146 133.427 373.37 133.729 375.568 134.198C377.12 134.516 378.625 135.063 379.906 136.052C381.349 137.172 381.516 138.813 380.359 140.198C379.401 141.344 378.156 142.13 376.807 142.667C374.354 143.641 371.88 144.599 369.349 145.307C361.682 147.453 353.823 148.516 345.927 149.318C343.557 149.557 341.172 149.651 338.807 149.891C333.891 150.396 329.021 149.761 324.151 149.359C316.104 148.677 308.12 147.557 300.323 145.396C297.781 144.693 295.292 143.787 292.833 142.839C291.484 142.318 290.208 141.573 289.182 140.49C287.604 138.849 287.74 137.104 289.714 135.865C290.813 135.172 292.068 134.625 293.328 134.307C295.24 133.813 297.219 133.573 299.167 133.224C299.912 133.094 300.781 133.198 301.13 132.25C300.938 131.906 300.724 131.573 300.547 131.214C299.75 129.583 298.604 129.13 296.698 129.307C291.531 129.745 286.511 130.849 281.516 132.146C280.755 132.344 280 132.583 279.229 132.771C278.818 132.88 278.386 132.651 278.386 132.276C278.386 131.958 278.688 131.531 278.974 131.359C279.412 131.094 279.958 131 280.458 130.823C283.604 129.797 286.823 129.078 290.083 128.531C292.531 128.13 294.995 127.823 297.552 127.464ZM305.521 132.677L305.464 132.625C304.932 133.037 305.083 133.49 305.37 133.974C305.995 135.037 307.042 135.641 307.995 136.344C311.656 139.052 315.792 140.849 320.172 141.891C324.505 142.932 328.875 144.182 333.443 143.25C334.068 143.13 334.776 143.12 335.391 143.276C338.719 144.104 341.969 143.318 345.193 142.771C350.172 141.943 354.927 140.359 359.261 137.677C360.271 137.063 360.646 136.49 359.307 135.797C358.917 135.599 358.969 135.12 359.245 134.797C359.854 134.104 360.474 133.427 361.141 132.787C361.792 132.156 362.396 131.958 363.042 132.917C363.557 133.693 364.146 133.13 364.656 132.745C365.115 132.396 365.422 131.839 364.995 131.464C363.901 130.49 364.406 129.641 364.938 128.667C366.328 126.12 367.818 123.609 368.99 120.958C373.198 111.464 375.604 101.49 376.672 91.172C376.781 90.1303 376.729 89.0626 376.797 88.0105C376.833 87.4116 376.688 86.4793 377.578 86.573C378.328 86.6511 378.313 87.5574 378.313 88.2136C378.313 89.3959 378.276 90.5834 378.214 91.7709C377.974 96.4116 376.865 100.906 375.906 105.427C374.854 110.344 372.99 115.011 371.542 119.797C369.688 123.266 367.828 126.745 365.979 130.214C365.771 130.599 365.854 130.984 366.229 131.156C366.38 131.224 366.766 131.026 366.906 130.839C369.453 127.479 371.599 123.891 373.057 119.906C375.922 114.958 377.917 109.667 379.307 104.156C381.224 96.547 381.656 88.7293 382.318 80.9584C382.349 80.573 382.313 80.172 382.245 79.7866C382.13 79.1043 381.578 78.9324 381.109 79.198C378.37 80.823 375.531 82.2657 372.531 83.3074C362.599 86.7709 352.365 88.6928 341.844 89.0001C338.802 89.0938 335.75 88.9324 332.708 89.0261C324.323 89.2918 316.057 88.3334 307.896 86.4897C300.922 84.9168 294.057 82.9584 287.964 78.9845C287.787 78.8803 287.464 79.0001 287.083 79.0105C287.13 86.4272 287.901 93.7866 289.318 101.052C291.266 111.052 295.63 120.078 300.849 128.729C301.594 129.974 302.505 131.13 303.495 132.182C303.943 132.667 304.656 133.333 305.521 132.677ZM361.75 134.823C361.297 134.958 361.016 135.214 361.047 135.719C360.677 135.761 360.365 135.891 360.271 136.276C360.255 136.344 360.469 136.557 360.49 136.547C360.776 136.386 361.047 136.198 361.318 136.026C361.677 135.823 362.037 135.625 362.391 135.427C362.641 135.214 362.88 135 363.13 134.787C363.516 134.386 364.208 133.974 363.511 133.396C363.057 133.037 362.719 133.557 362.516 134C362.089 134.12 361.828 134.386 361.75 134.823ZM334.787 62.6407C339.552 62.6407 344.323 62.4376 349.073 62.6772C356.875 63.0782 364.609 64.1043 372.078 66.573C374.073 67.2241 376.021 68.0782 377.922 68.9845C378.984 69.4897 379.969 70.2136 380.886 70.9584C383.021 72.7032 384.531 74.7709 384.063 77.7709C383.958 78.4116 383.969 79.0938 384.031 79.7605C384.156 81.1563 383.037 82.8647 384.24 83.8647C385.25 84.7032 386.698 83.4272 388.005 83.4272C392.208 83.4532 396.24 84.3438 399.521 87.0105C403.182 89.9845 404.521 94.0782 403.662 98.7293C402.984 102.396 400.964 105.307 398.162 107.693C395 110.37 391.406 112.318 387.495 113.651C384.245 114.761 380.953 115.729 377.667 116.719C377.011 116.917 376.464 117.063 376.146 117.771C375.162 119.932 374.099 122.052 373.125 124.224C372.875 124.771 373.156 125.266 373.813 125.318C377.641 125.625 381.427 126.198 385.188 126.974C388.688 127.693 392.12 128.651 395.38 130.156C397.188 131 398.901 131.984 400.365 133.359C403.531 136.333 403.901 139.761 401.438 143.292C400.214 145.063 398.599 146.427 396.854 147.641C393.912 149.693 390.714 151.266 387.406 152.625C379.052 156.078 370.323 158.13 361.458 159.693C355.589 160.729 349.667 161.307 343.74 161.823C337.136 162.396 330.537 162.276 323.927 161.693C314.693 160.865 305.547 159.573 296.542 157.344C290.245 155.771 284.083 153.823 278.224 151C275.719 149.787 273.313 148.396 271.136 146.667C269.573 145.427 268.167 144.026 267.214 142.24C265.802 139.599 266.047 136.787 267.917 134.464C269.182 132.88 270.823 131.771 272.583 130.839C276.115 128.943 279.922 127.849 283.807 127.026C287.563 126.24 291.349 125.641 295.182 125.359C296.229 125.276 296.479 124.787 296.016 123.761C295.583 122.797 295.083 121.865 294.625 120.906C290.828 113.011 287.818 104.88 286.802 96.0782C286.047 89.5053 285.318 82.9428 285.37 76.3074C285.386 74.7293 285.886 73.5991 286.922 72.4376C288.641 70.4897 290.734 69.198 293.037 68.1459C297.401 66.1563 302.031 65.0938 306.714 64.2241C316 62.4897 325.386 62.2918 334.787 62.6407Z" fill="white"/>
<path d="M305.521 132.677C306.375 131.984 305.526 131.531 305.219 131.12C301.651 126.333 298.563 121.25 296.287 115.719C293.615 109.214 291.662 102.49 290.156 95.6407C290.047 95.1302 289.833 94.625 290.141 94.1198C290.203 94.0104 290.297 93.8646 290.391 93.849C290.62 93.8229 291.021 93.7969 291.063 93.8907C291.417 94.7292 291.771 95.5729 292.016 96.4532C293.135 100.396 294.13 104.37 295.328 108.292C297.396 115.036 300.505 121.266 304.385 127.172C307.344 131.677 311.313 134.745 316.177 136.813C316.776 137.063 317.406 137.25 318 137.505C318.302 137.641 318.339 137.917 318.13 138.182C317.979 138.385 317.823 138.651 317.615 138.729C316.938 138.984 316.328 138.667 315.719 138.411C312.38 137.036 309.375 135.156 306.693 132.745C306.328 132.427 305.943 131.974 305.464 132.625L305.521 132.677Z" fill="white"/>
<path d="M319.537 152.104C311.042 150.823 302.63 149.839 294.609 146.974C292.88 146.344 291.229 145.49 289.594 144.641C288.912 144.292 288.323 143.703 287.766 143.156C287.526 142.917 287.276 142.479 287.766 142.182C287.969 142.052 288.245 142.026 288.495 142C288.604 141.984 288.734 142.104 288.839 142.172C293.109 145.307 298.089 146.547 303.141 147.677C307.917 148.729 312.745 149.464 317.578 150.172C318.609 150.318 319.615 150.651 320.63 150.932C320.953 151.01 320.984 151.266 320.755 151.547C320.677 151.651 320.62 151.797 320.521 151.839C320.162 151.958 319.781 152.037 319.537 152.104Z" fill="white"/>
<path d="M353.318 151.12C353.083 151.094 352.578 151.026 352.073 150.932C351.953 150.906 351.75 150.786 351.755 150.719C351.781 150.479 351.813 150.078 351.948 150.026C352.677 149.76 353.432 149.437 354.193 149.385C358.401 149.062 362.51 148.13 366.651 147.396C368.974 146.984 371.302 146.531 373.49 145.573C373.958 145.359 374.505 145.292 375.021 145.266C375.219 145.24 375.563 145.453 375.62 145.625C375.688 145.823 375.589 146.214 375.422 146.333C374.135 147.307 372.599 147.719 371.078 148.062C365.313 149.411 359.5 150.49 353.318 151.12Z" fill="white"/>
<path d="M340.974 64.8386C343.682 65.0782 346.224 64.9324 348.635 65.7709C349.016 65.9063 349.245 66.2761 349.005 66.6928C348.885 66.8907 348.583 67.1303 348.406 67.1042C344.479 66.4376 340.495 66.797 336.557 66.4532C336.203 66.4272 335.865 66.0365 335.974 65.5834C336.021 65.3959 336.276 65.1303 336.453 65.1042C338.026 64.9845 339.609 64.9167 340.974 64.8386Z" fill="white"/>
<path d="M328.729 64.823C330.052 64.9324 331.49 65.0365 332.927 65.172C333.281 65.198 333.313 65.4115 333.271 65.7449C333.229 66.0522 333.188 66.2657 332.87 66.3438C332.495 66.4376 332.115 66.5834 331.74 66.599C328.182 66.6407 324.62 66.5157 321.089 67.1303C320.969 67.1563 320.797 67.1459 320.708 67.0782C320.521 66.9324 320.339 66.7449 320.203 66.5313C319.995 66.2397 320.099 66.0522 320.427 65.9167C323.068 64.8386 325.87 65.1042 328.729 64.823Z" fill="white"/>
<path d="M545.651 200.479C545.76 200.531 545.87 200.583 545.979 200.641C546.031 200.516 546.141 200.385 546.115 200.307C546.083 200.224 545.911 200.198 545.802 200.146C545.755 200.25 545.703 200.37 545.651 200.479ZM531.26 183.479C531.203 183.583 531.141 183.693 531.078 183.797C531.187 183.849 531.318 183.974 531.406 183.943C531.49 183.917 531.531 183.76 531.594 183.651C531.484 183.599 531.375 183.531 531.26 183.479ZM520.687 162.729C519.177 163.812 517.448 164.839 516.182 166.411C516.005 166.625 516.125 167.078 516.104 167.427C516.469 167.359 516.995 167.427 517.172 167.214C518.505 165.547 520.167 164.276 521.937 163.146C522 163.104 521.984 162.932 521.99 162.823C522.01 162.49 521.849 162.359 521.51 162.464C521.276 162.531 521.047 162.609 520.687 162.729ZM533.516 183.917C533.12 183.625 532.698 183.411 532.464 184.026C532.417 184.13 532.875 184.437 533.094 184.667C533.641 184.974 534.182 185.276 534.724 185.583C538.771 187.823 542.026 190.786 543.604 195.292C543.708 195.599 543.865 195.891 544.047 196.307C544.594 194.307 543.812 192.76 542.859 191.307C541.281 188.88 539.427 186.719 536.958 185.13C536.469 184.812 535.76 184.667 535.818 183.849C536.042 182.823 536.776 183.224 537.208 183.505C541.797 186.49 545.167 190.37 546.073 195.974C546.214 196.865 546.328 197.76 546.453 198.641C547.828 196.359 548.76 194.052 549.583 191.703C550.052 190.344 549.849 190.094 548.427 189.609C548.078 189.49 547.693 189.427 547.375 189.24C547.193 189.146 547 188.849 547.005 188.667C547.021 188.307 547.161 188 547.667 188C548.281 188 549.073 188.12 549.469 187.786C550.115 187.266 549.667 186.396 549.495 185.719C549.25 184.76 548.88 183.812 548.453 182.906C547.161 180.156 545.365 177.745 543.437 175.427C541.599 173.198 539.719 171.01 537.87 168.812C536.083 166.677 534.156 164.719 531.714 163.344C530.562 162.703 529.469 161.797 528.094 163.104C527.771 163.411 526.885 163.146 526.266 163.104C525.63 163.062 524.969 163.026 524.464 163.437C522.714 164.849 520.839 166.146 519.661 168.13C517.839 171.214 518.339 174.839 520.937 177.37C522.771 179.172 524.922 180.427 527.437 180.974C528.786 181.266 530.156 181.437 531.505 181.729C532.599 181.974 533.693 182.24 534.755 182.583C535.219 182.729 535.026 183.156 534.854 183.479C534.547 184.062 533.964 183.771 533.516 183.917ZM529.818 202.583C530.005 202.505 530.203 202.427 530.391 202.318C530.406 202.318 530.375 202.156 530.349 202.146C529.927 202.052 529.922 202.411 529.812 202.651C529.682 201.906 529.464 201.198 528.682 200.849C528.469 200.557 528.073 200.25 528.083 199.974C528.104 199.333 528.651 199.214 529.151 199.427C531.604 200.464 534.208 200.88 536.818 201.25C537.719 201.385 538.505 201.677 539.156 202.307C538.422 202.932 537.573 202.958 536.677 202.797C535.693 202.641 534.708 202.453 533.714 202.359C533.349 202.333 533.026 202.667 533.021 203.078C533.016 203.276 533.151 203.599 533.323 203.693C534.542 204.437 535.932 204.505 537.302 204.557C538.948 204.609 539.13 204.344 539.052 202.276C540.109 201.599 541.182 200.943 542.208 200.24C542.74 199.865 542.594 199.49 542.151 199.062C541.927 198.865 541.745 198.198 541.839 198.13C542.927 197.276 542.453 196.333 542.047 195.427C540.969 192.984 539.516 190.839 537.349 189.182C535.542 187.797 533.62 186.651 531.521 185.786C529.656 185.036 527.797 184.292 525.922 183.557C522.781 182.344 520.234 180.427 518.521 177.464C518.083 176.703 517.557 176 517.062 175.276C516.766 174.839 516.365 174.599 515.807 174.609C514.964 174.625 513.661 175.026 513.464 174.094C513.156 172.719 515.104 173.583 515.505 172.651C515.411 172.557 514.484 171.13 514.437 171C514.589 170.411 515.292 170.641 515.531 170.276C515.708 170.01 515.693 169.609 515.76 169.276C515.526 169.24 515.286 169.156 515.057 169.182C514.714 169.24 514.318 169.292 514.047 169.49C513.396 169.958 513.891 170.172 514.297 170.427C514.427 170.516 514.411 170.812 514.464 171.01C514.448 171.13 514.464 171.266 514.411 171.385C514.083 172.146 512.969 171.599 512.667 172.427C512.396 173.182 512.635 173.906 512.76 174.641C512.911 175.505 512.964 176.396 513.25 177.214C515.708 184.198 518.719 190.906 523.443 196.719C524.625 198.172 525.823 199.609 527.422 200.651C527.839 200.917 528.234 201.224 528.708 200.786C528.557 201.703 529.531 201.943 529.818 202.583ZM514.146 183.917C513.172 181.344 511.719 178.411 511.172 175.146C510.641 171.974 511.24 169.25 513.568 166.865C515.24 165.156 516.807 163.396 518.875 162.13C523.219 159.49 527.583 159.214 532.073 161.745C534.51 163.13 536.594 164.906 538.391 167.036C540.651 169.719 542.906 172.427 545.193 175.078C546.844 177 548.177 179.13 549.391 181.333C551.698 185.49 552.312 189.839 550.349 194.344C549.693 195.849 548.927 197.344 548.594 198.917C547.833 202.453 545.281 204.156 542.297 205.333C539.151 206.557 535.885 206.385 532.698 205.292C529.062 204.036 525.953 201.984 523.417 199.078C519.578 194.677 516.656 189.729 514.146 183.917Z" fill="white"/>
<path d="M526.557 170.865C526.052 169.787 526.391 169.214 527.349 169.276C529.063 169.427 530.781 169.557 532.5 169.745C532.682 169.76 532.912 170.026 532.985 170.214C533.052 170.396 533.005 170.703 532.886 170.865C532.667 171.156 532.386 171.427 532.078 171.609C531.281 172.104 531.068 173.516 529.834 173.25C528.37 172.943 526.906 172.479 526.557 170.865Z" fill="white"/>
<path d="M533.156 176.609C533.245 176.396 533.292 176.036 533.422 176C534.828 175.641 536.24 175.13 537.693 175.786C537.854 175.849 538.01 176.172 537.984 176.359C537.964 176.557 537.734 176.88 537.573 176.891C536.25 177.01 534.922 177.078 533.594 177.12C533.453 177.12 533.302 176.786 533.156 176.609Z" fill="white"/>
<path d="M535.844 183.865C535.25 184.385 534.917 184.24 534.818 183.479C535.052 183.333 535.063 182.88 535.563 183.078C536.057 183.266 535.766 183.599 535.844 183.865Z" fill="white"/>
<path d="M527.083 191.958C527.136 191.729 527.224 191.307 527.24 191.307C528.651 191.516 530.537 190.146 531.323 192.516C531.391 192.719 531.932 192.813 532.266 192.849C532.807 192.932 533.25 193.104 533.099 193.745C532.969 194.307 532.448 194.427 531.948 194.49C529.724 194.813 528.208 193.76 527.083 191.958Z" fill="white"/>
<path d="M534.344 197.214C532.594 197.813 530.807 197.943 529.057 196.984C528.917 196.906 528.823 196.547 528.88 196.359C528.938 196.172 529.203 195.917 529.386 195.917C530.985 195.88 532.583 195.891 534.182 195.932C534.333 195.932 534.563 196.25 534.599 196.453C534.63 196.641 534.464 196.88 534.344 197.214Z" fill="white"/>
<path d="M517.505 184.156C517.583 183.974 517.656 183.599 517.761 183.583C519.276 183.427 520.714 183.703 522.005 184.557C522.089 184.609 522.156 184.823 522.115 184.891C521.995 185.094 521.828 185.385 521.656 185.411C520.255 185.547 518.932 185.266 517.729 184.505C517.636 184.437 517.594 184.292 517.505 184.156Z" fill="white"/>
<path d="M557.724 222.13C557.672 222.052 557.62 221.974 557.568 221.891C557.49 221.943 557.365 221.984 557.354 222.052C557.339 222.12 557.438 222.214 557.49 222.292C557.568 222.24 557.646 222.182 557.724 222.13ZM560.531 239.13C560.615 239.094 560.698 239.036 560.776 239C560.729 238.917 560.693 238.786 560.625 238.771C560.557 238.76 560.464 238.849 560.38 238.891C560.427 238.974 560.479 239.052 560.531 239.13ZM559.313 257.13C560.745 257 562.302 257.026 563.766 256.479C563.969 256.396 564.073 256.052 564.219 255.823C563.953 255.729 563.63 255.464 563.432 255.547C561.88 256.12 560.276 256.307 558.641 256.359C558.583 256.359 558.531 256.479 558.479 256.547C558.333 256.76 558.396 256.906 558.656 256.974C558.844 257.026 559.026 257.063 559.313 257.13ZM559.208 237.958C559.354 238.307 559.552 238.609 559.948 238.307C560.026 238.24 559.844 237.865 559.781 237.625C559.542 237.214 559.307 236.786 559.063 236.37C557.266 233.266 556.281 230 557.026 226.385C557.073 226.146 557.089 225.891 557.13 225.547C555.974 226.641 555.88 227.984 555.932 229.333C556.021 231.557 556.391 233.745 557.401 235.786C557.604 236.182 558.01 236.557 557.656 237.078C557.094 237.677 556.766 237.12 556.589 236.76C554.724 232.958 554.031 229.036 555.656 224.943C555.911 224.307 556.193 223.667 556.464 223.026C554.641 224 553.104 225.156 551.625 226.396C550.776 227.104 550.813 227.359 551.563 228.24C551.75 228.464 551.974 228.667 552.115 228.906C552.193 229.052 552.208 229.307 552.13 229.438C551.979 229.667 551.76 229.823 551.427 229.625C551.021 229.37 550.536 228.984 550.146 229.036C549.51 229.13 549.458 229.891 549.307 230.396C549.089 231.146 548.953 231.917 548.88 232.693C548.646 235.026 548.88 237.344 549.24 239.651C549.578 241.865 549.958 244.063 550.313 246.266C550.651 248.385 551.151 250.453 552.229 252.333C552.74 253.224 553.104 254.266 554.542 253.932C554.875 253.865 555.354 254.385 555.755 254.667C556.156 254.943 556.583 255.224 557.089 255.156C558.807 254.917 560.563 254.797 562.135 253.943C564.573 252.625 565.682 250.01 564.969 247.292C564.464 245.37 563.531 243.693 562.073 242.333C561.292 241.599 560.453 240.932 559.672 240.198C559.042 239.609 558.427 239 557.854 238.344C557.604 238.063 557.901 237.865 558.146 237.719C558.578 237.438 558.854 237.865 559.208 237.958ZM569.083 227.026C568.922 227 568.76 226.974 568.599 226.958C568.589 226.958 568.542 227.078 568.557 227.094C568.797 227.333 568.943 227.094 569.115 226.974C568.901 227.531 568.766 228.078 569.146 228.625C569.172 228.906 569.318 229.266 569.198 229.453C568.927 229.865 568.516 229.719 568.271 229.385C567.052 227.719 565.49 226.411 563.906 225.12C563.359 224.667 562.948 224.172 562.766 223.49C563.5 223.37 564.078 223.693 564.609 224.146C565.198 224.651 565.781 225.172 566.406 225.625C566.635 225.786 566.984 225.693 567.151 225.427C567.234 225.276 567.266 225.026 567.198 224.891C566.682 223.906 565.781 223.318 564.891 222.729C563.823 222.036 563.599 222.146 562.823 223.557C561.854 223.583 560.885 223.583 559.917 223.651C559.417 223.693 559.365 224 559.49 224.453C559.557 224.677 559.417 225.182 559.328 225.198C558.266 225.333 558.203 226.156 558.109 226.917C557.859 228.974 557.974 230.974 558.755 232.932C559.406 234.573 560.219 236.094 561.276 237.505C562.214 238.745 563.156 239.984 564.115 241.198C565.714 243.266 566.646 245.557 566.604 248.198C566.599 248.88 566.661 249.557 566.703 250.24C566.724 250.641 566.901 250.958 567.271 251.172C567.839 251.505 568.865 251.76 568.63 252.453C568.281 253.49 567.333 252.13 566.698 252.599C566.719 252.693 566.771 254.01 566.75 254.12C566.417 254.453 566.042 254.01 565.734 254.156C565.51 254.266 565.365 254.531 565.188 254.729C565.328 254.849 565.453 255.01 565.615 255.078C565.87 255.172 566.151 255.307 566.406 255.276C567.031 255.224 566.781 254.891 566.615 254.547C566.563 254.453 566.693 254.25 566.734 254.104C566.797 254.026 566.844 253.932 566.917 253.88C567.438 253.49 567.964 254.307 568.495 253.865C568.974 253.479 569.104 252.906 569.313 252.359C569.552 251.729 569.875 251.12 570.005 250.464C571.151 244.839 571.818 239.182 570.984 233.453C570.776 232.026 570.552 230.583 569.906 229.266C569.734 228.917 569.594 228.557 569.109 228.651C569.573 228.104 569.021 227.557 569.083 227.026ZM572.073 245.651C571.703 247.745 571.5 250.276 570.563 252.667C569.656 254.974 568.182 256.557 565.688 257.214C563.896 257.677 562.151 258.224 560.276 258.24C556.339 258.276 553.328 256.719 551.354 253.25C550.281 251.37 549.604 249.359 549.26 247.24C548.823 244.547 548.401 241.865 547.938 239.182C547.604 237.25 547.563 235.307 547.63 233.359C547.75 229.677 549.068 226.557 552.172 224.333C553.198 223.599 554.302 222.906 555.151 222C557.057 219.943 559.432 219.823 561.88 220.24C564.464 220.667 566.563 222.078 568.245 224.078C570.161 226.359 571.411 228.943 571.943 231.891C572.745 236.344 572.719 240.797 572.073 245.651Z" fill="white"/>
<path d="M558.64 249.385C558.552 250.307 558.094 250.557 557.489 250.13C556.401 249.359 555.318 248.573 554.25 247.771C554.135 247.693 554.083 247.427 554.114 247.266C554.146 247.12 554.297 246.932 554.443 246.865C554.703 246.771 554.989 246.703 555.271 246.703C556 246.693 556.703 245.839 557.416 246.505C558.265 247.292 559.052 248.172 558.64 249.385Z" fill="white"/>
<path d="M556.542 242.958C556.396 243.052 556.224 243.276 556.125 243.25C555.047 242.932 553.906 242.703 553.198 241.703C553.12 241.583 553.146 241.307 553.229 241.198C553.328 241.078 553.604 240.958 553.719 241.01C554.646 241.464 555.557 241.932 556.453 242.438C556.547 242.49 556.516 242.771 556.542 242.958Z" fill="white"/>
<path d="M557.641 237.063C558.239 236.958 558.406 237.182 558.167 237.729C557.953 237.729 557.766 238.026 557.516 237.703C557.26 237.37 557.588 237.266 557.641 237.063Z" fill="white"/>
<path d="M566.677 235.156C566.552 235.292 566.323 235.547 566.313 235.531C565.464 234.838 563.662 235 564.083 233.104C564.115 232.943 563.792 232.677 563.589 232.505C563.26 232.24 563.037 231.958 563.385 231.583C563.698 231.266 564.094 231.396 564.453 231.547C566.057 232.224 566.646 233.516 566.677 235.156Z" fill="white"/>
<path d="M563.938 228.786C565.339 229.094 566.578 229.719 567.365 231.036C567.427 231.146 567.339 231.427 567.229 231.531C567.115 231.625 566.839 231.693 566.719 231.625C565.646 231.01 564.584 230.37 563.537 229.703C563.438 229.651 563.412 229.344 563.469 229.198C563.521 229.052 563.724 228.958 563.938 228.786Z" fill="white"/>
<path d="M569.938 244.156C569.813 244.25 569.615 244.464 569.542 244.437C568.474 243.932 567.625 243.182 567.109 242.104C567.078 242.036 567.115 241.865 567.172 241.839C567.328 241.745 567.557 241.625 567.677 241.677C568.667 242.146 569.432 242.849 569.927 243.839C569.964 243.917 569.932 244.036 569.938 244.156Z" fill="white"/>
<defs>
<filter id="filter0_d_22_577" x="206.135" y="270.438" width="71.3698" height="149.974" filterUnits="userSpaceOnUse" color-interpolation-filters="sRGB">
<feFlood flood-opacity="0" result="BackgroundImageFix"/>
<feColorMatrix in="SourceAlpha" type="matrix" values="0 0 0 0 0 0 0 0 0 0 0 0 0 0 0 0 0 0 127 0" result="hardAlpha"/>
<feOffset dy="10"/>
<feGaussianBlur stdDeviation="5"/>
<feComposite in2="hardAlpha" operator="out"/>
<feColorMatrix type="matrix" values="0 0 0 0 0 0 0 0 0 0 0 0 0 0 0 0 0 0 0.25 0"/>
<feBlend mode="normal" in2="BackgroundImageFix" result="effect1_dropShadow_22_577"/>
<feBlend mode="normal" in="SourceGraphic" in2="effect1_dropShadow_22_577" result="shape"/>
</filter>
<filter id="filter1_d_22_577" x="271.411" y="269.396" width="65.4635" height="153.63" filterUnits="userSpaceOnUse" color-interpolation-filters="sRGB">
<feFlood flood-opacity="0" result="BackgroundImageFix"/>
<feColorMatrix in="SourceAlpha" type="matrix" values="0 0 0 0 0 0 0 0 0 0 0 0 0 0 0 0 0 0 127 0" result="hardAlpha"/>
<feOffset dy="10"/>
<feGaussianBlur stdDeviation="5"/>
<feComposite in2="hardAlpha" operator="out"/>
<feColorMatrix type="matrix" values="0 0 0 0 0 0 0 0 0 0 0 0 0 0 0 0 0 0 0.25 0"/>
<feBlend mode="normal" in2="BackgroundImageFix" result="effect1_dropShadow_22_577"/>
<feBlend mode="normal" in="SourceGraphic" in2="effect1_dropShadow_22_577" result="shape"/>
</filter>
<filter id="filter2_d_22_577" x="329.042" y="261.801" width="83.8646" height="154.969" filterUnits="userSpaceOnUse" color-interpolation-filters="sRGB">
<feFlood flood-opacity="0" result="BackgroundImageFix"/>
<feColorMatrix in="SourceAlpha" type="matrix" values="0 0 0 0 0 0 0 0 0 0 0 0 0 0 0 0 0 0 127 0" result="hardAlpha"/>
<feOffset dy="10"/>
<feGaussianBlur stdDeviation="5"/>
<feComposite in2="hardAlpha" operator="out"/>
<feColorMatrix type="matrix" values="0 0 0 0 0 0 0 0 0 0 0 0 0 0 0 0 0 0 0.25 0"/>
<feBlend mode="normal" in2="BackgroundImageFix" result="effect1_dropShadow_22_577"/>
<feBlend mode="normal" in="SourceGraphic" in2="effect1_dropShadow_22_577" result="shape"/>
</filter>
<filter id="filter3_d_22_577" x="405.422" y="266.438" width="76.7448" height="155.236" filterUnits="userSpaceOnUse" color-interpolation-filters="sRGB">
<feFlood flood-opacity="0" result="BackgroundImageFix"/>
<feColorMatrix in="SourceAlpha" type="matrix" values="0 0 0 0 0 0 0 0 0 0 0 0 0 0 0 0 0 0 127 0" result="hardAlpha"/>
<feOffset dy="10"/>
<feGaussianBlur stdDeviation="5"/>
<feComposite in2="hardAlpha" operator="out"/>
<feColorMatrix type="matrix" values="0 0 0 0 0 0 0 0 0 0 0 0 0 0 0 0 0 0 0.25 0"/>
<feBlend mode="normal" in2="BackgroundImageFix" result="effect1_dropShadow_22_577"/>
<feBlend mode="normal" in="SourceGraphic" in2="effect1_dropShadow_22_577" result="shape"/>
</filter>
<filter id="filter4_d_22_577" x="136.495" y="266.438" width="76.75" height="155.236" filterUnits="userSpaceOnUse" color-interpolation-filters="sRGB">
<feFlood flood-opacity="0" result="BackgroundImageFix"/>
<feColorMatrix in="SourceAlpha" type="matrix" values="0 0 0 0 0 0 0 0 0 0 0 0 0 0 0 0 0 0 127 0" result="hardAlpha"/>
<feOffset dy="10"/>
<feGaussianBlur stdDeviation="5"/>
<feComposite in2="hardAlpha" operator="out"/>
<feColorMatrix type="matrix" values="0 0 0 0 0 0 0 0 0 0 0 0 0 0 0 0 0 0 0.25 0"/>
<feBlend mode="normal" in2="BackgroundImageFix" result="effect1_dropShadow_22_577"/>
<feBlend mode="normal" in="SourceGraphic" in2="effect1_dropShadow_22_577" result="shape"/>
</filter>
<filter id="filter5_d_22_577" x="469.948" y="267.667" width="74.8385" height="157.786" filterUnits="userSpaceOnUse" color-interpolation-filters="sRGB">
<feFlood flood-opacity="0" result="BackgroundImageFix"/>
<feColorMatrix in="SourceAlpha" type="matrix" values="0 0 0 0 0 0 0 0 0 0 0 0 0 0 0 0 0 0 127 0" result="hardAlpha"/>
<feOffset dy="10"/>
<feGaussianBlur stdDeviation="5"/>
<feComposite in2="hardAlpha" operator="out"/>
<feColorMatrix type="matrix" values="0 0 0 0 0 0 0 0 0 0 0 0 0 0 0 0 0 0 0.25 0"/>
<feBlend mode="normal" in2="BackgroundImageFix" result="effect1_dropShadow_22_577"/>
<feBlend mode="normal" in="SourceGraphic" in2="effect1_dropShadow_22_577" result="shape"/>
</filter>
</defs>
</svg>
